<svg height="269" viewBox="0 0 520 269" width="520" xmlns="http://www.w3.org/2000/svg" xmlns:xlink="http://www.w3.org/1999/xlink"><linearGradient id="a" x1="49.78478%" x2="50.411984%" y1="123.565192%" y2="-27.837562%"><stop offset="0" stop-color="#385ed4"/><stop offset="1" stop-color="#001462"/></linearGradient><linearGradient id="b"><stop offset="0" stop-color="#0a3b5e"/><stop offset="1" stop-color="#1c1c1a"/></linearGradient><linearGradient id="c" x1="177.326659%" x2="-8.801328%" xlink:href="#b" y1="50.000703%" y2="50.000703%"/><linearGradient id="d" x1="50.000528%" x2="50.000528%" xlink:href="#b" y1="-19.042914%" y2="121.578285%"/><linearGradient id="e"><stop offset="0" stop-color="#8cc6ff"/><stop offset="1" stop-color="#385ed4"/></linearGradient><linearGradient id="f" x1="49.998973%" x2="49.998973%" xlink:href="#e" y1="-230.866487%" y2="287.906488%"/><linearGradient id="g" x1="50.000119%" x2="50.000119%" xlink:href="#e" y1="-114.171089%" y2="146.464263%"/><linearGradient id="h" x1="49.997162%" x2="49.997162%" xlink:href="#e" y1="274.745519%" y2="-81.874456%"/><linearGradient id="i" x1="49.99909%" x2="49.99909%" xlink:href="#e" y1="258.603863%" y2="-70.275689%"/><linearGradient id="j" x1="49.999983%" x2="49.999983%" xlink:href="#e" y1="-266.705039%" y2="357.949987%"/><linearGradient id="k" x1="49.999268%" x2="49.999268%" xlink:href="#e" y1="-833.218374%" y2="644.227034%"/><linearGradient id="l" x1="-22.987398%" x2="163.851344%" xlink:href="#b" y1="23.296865%" y2="92.436691%"/><linearGradient id="m" x1="-43.464631%" x2="201.917442%" xlink:href="#b" y1="-73.584394%" y2="247.720908%"/><linearGradient id="n" x1="-16.283454%" x2="110.904593%" y1="75.42241%" y2="23.386644%"><stop offset="0" stop-color="#385ed4"/><stop offset="1" stop-color="#5d8ce6"/></linearGradient><linearGradient id="o" x1=".00223%" x2="100.000748%" xlink:href="#b" y1="49.994348%" y2="49.994348%"/><linearGradient id="p" x1="-.000289%" x2="100.000625%" xlink:href="#b" y1="49.999394%" y2="49.999394%"/><mask id="q" fill="#fff"><path d="m18.5945505 4.82748437c2.0283259 14.02953123.7596552 30.01120313 0 36.04910933-.7581081 6.0363282-18.19304747 60.0066253-18.19304747 60.0066253h42.50511027l11.7058081-57.175469-15.5365747-43.67776562z" fill="#fff" fill-rule="evenodd"/></mask><mask id="r" fill="#fff"><path d="m22.0282959 4.8066223c2.0595887 13.9689023.7713639 29.8815091 0 35.8933224-.7697929 6.010242-22.00350892 60.1998413-22.00350892 60.1998413h46.69029582l11.8862308-57.38092-15.7760414-43.4890112z" fill="#fff" fill-rule="evenodd"/></mask><mask id="s" fill="#fff"><path d="m6.27319149 12.3243547s10.50355051 34.4830527 10.50355051 41.1923681c0 6.7108866-16.73162232 57.3795732-16.73162232 57.3795732h53.34857712s11.4635106-29.0826035 17.0832447-52.3216608c7.7839229-32.1968574-20.432992-38.643771-26.7310771-58.57373733z" fill="#fff" fill-rule="evenodd"/></mask><mask id="t" fill="#fff"><path d="m.24258909 111.801239h37.79272001l23.6206473-55.4920559-12.4124-55.48890141c-26.3272291 27.40056341-49.00096731 110.98095731-49.00096731 110.98095731" fill="#fff" fill-rule="evenodd"/></mask><mask id="u" fill="#fff"><path d="m66.3598636.25038291c-33.0077613 1.97006173-59.70681815 12.13532829-64.91142042 20.04077189-3.80670454 5.784202 4.53013637 44.8200854 10.33180682 60.3648331 5.8000909 15.5415981 8.3384205 32.1698011 8.3384205 46.2641671s93.3558745-.543302 93.8992385 0c.544943.543303 11.601761-34.336711 13.050205-51.6877423 1.450022-17.3478817-1.811739-36.5051966 11.601761-50.4216119-5.229875-5.9259331-31.93525-24.7257708-66.6299659-24.72892038-1.8717614 0-3.7624773.05511764-5.6800455.16850249" fill="#fff" fill-rule="evenodd"/></mask><mask id="v" fill="#fff"><path d="m.4992 7.71272727c-.9216 4.18129873-.3296 7.79064933 1.3264 8.05870133 1.6528.2680519 3.7424-2.9033767 4.6656-7.08467535.9216-4.18285715.3296-7.79220779-1.3248-8.06025974-.0672-.01090909-.1328-.01558442-.2-.01558442-1.6192 0-3.5808 3.08727273-4.4672 7.10181818" fill="#fff" fill-rule="evenodd"/></mask><mask id="w" fill="#fff"><path d="m.924 8.1504c-1.07644444 6.216 3.77533333 24.2864 10.9355556 30.6672s1.1884444 1.5648 3.4128888-1.9264c2.2213334-3.4896 9.8248889-11.4832 12.4615556-10.4368l-.0124444-.0192c-5.3495556-1.1408-14.3251112-8.2912-15.862-19.5616v-6.3888c-5.3915556 2.4336-10.38644449 4.4928-10.9355556 7.6656" fill="#fff" fill-rule="evenodd"/></mask><mask id="x" fill="#fff"><path d="m16.814 11.6384189c-.3951111 7.4816757-10.29622222 14.3151081-16.15288889 16.1871081 2.93377778-.7130675 12.78199999 9.9655541 14.51177779 12.9063649 1.7546667 2.9835 3.9262222-.4964595 7.49-8.6738108 3.6291111-8.325973 5.5937778-18.7152568 3.1608889-24.31070272-1.4917778-3.43094595-6.3326667-6.21681081-8.8075556-7.40894595-.014 4.66260811-.07 8.81768919-.2022222 11.29998647" fill="#fff" fill-rule="evenodd"/></mask><mask id="y" fill="#fff"><path d="m.90287838 39.5450632c-1.64748649 8.8398947 1.15577027 34.1001315 1.88148648 44.7650368l39.19341894 1.5857947c0-24.1306947-7.0168379-72.4903052-18.1460676-85.27805259s-17.41877025 9.33416842-22.92883782 38.92722109" fill="#fff" fill-rule="evenodd"/></mask><mask id="z" fill="#fff"><path d="m28.9784318 11.1668906-28.88434089 4.3513594.38577273 20.3909063h52.42745456c7.7640682 0 16.1162045-6.2540157 14.9447727-23.1938438-.5786591-8.35467187-7.7044773-12.01148437-15.9311591-12.01148437-8.4572045 0-18.0764318 3.86409375-22.9425 10.46306247" fill="#fff" fill-rule="evenodd"/></mask><mask id="A" fill="#fff"><path d="m17.016.73041486c1.8288 8.55089126 2.576 28.27209264 1.0112 36.48296314-1.664 8.7271983-11.1168 20.986834-17.1296 38.6836528h34.3552c3.2944-21.2623138 6.2704-49.7988669 1.5728-75.16661594z" fill="#fff" fill-rule="evenodd"/></mask><mask id="B" fill="#fff"><path d="m.89.73041486-.81295455 34.59081084s3.9534091 18.9907865 6.65318182 40.5758051h9.07136363c5.9786364-17.6968188 15.3777273-29.9564545 17.0322727-38.6836528 1.5559091-8.2108705.8129546-27.93207188-1.0054545-36.48296314z" fill="#fff" fill-rule="evenodd"/></mask><mask id="C" fill="#fff"><path d="m.19997818.0451509c.81118546 28.270711 3.04589091 56.4045064 4.38892364 77.8483222h39.35827638c5.9308073-17.6920136 15.2547054-29.9483205 16.8960145-38.6731491 1.5434618-8.2086411.8064509-27.9244877-.9974109-36.47305716-.2319927-1.09689855-.4797673-2.02068542-.7449018-2.70211594z" fill="#fff" fill-rule="evenodd"/></mask><mask id="D" fill="#fff"><path d="m.16343596.56111035h44.10733264v33.33534075h-44.10733264z" fill="#fff" fill-rule="evenodd"/></mask><mask id="E" fill="#fff"><path d="m23.6260465 1.85556757-22.93497673 28.03783783c-.8855814 1.0831712-.33841861 2.7270991 1.01525581 3.0514114l33.69637212 8.0502943c.8175814.1965045 1.676279-.0287567 2.2993488-.5959039l29.4313488-26.8412372c.7400931-.6741862.4506977-1.9043364-.5092093-2.1711352l-38.9118139-10.83171168c-.3463256-.09745345-.6989768-.14378378-1.0484651-.14378378-1.1575814 0-2.2772093.51602402-3.0378605 1.44422823" fill="#fff" fill-rule="evenodd"/></mask><mask id="F" fill="#fff"><path d="m.00031576.12145224h520.09503924v1.59138958h-520.09503924z" fill="#fff" fill-rule="evenodd"/></mask><mask id="G" fill="#fff"><path d="m2.89717073.038c-1.43297561 0-2.59746341 1.116-2.59746341 2.4915v2.976c0 1.3785 1.1644878 2.4945 2.59746341 2.4945h54.81365857c3.1406829 0 5.6897561-2.4495 5.6897561-5.4705 0-1.3755-1.1613659-2.4915-2.5943415-2.4915z" fill="#fff" fill-rule="evenodd"/></mask><mask id="H" fill="#fff"><path d="m6.98173324.45524138c-4.490357 0-7.74900066 4.27006896-6.56014333 8.59882759l20.54866089 74.75158623c1.3301235 4.8395172 5.7331812 8.1943448 10.7552701 8.1943448h116.4207191c4.490357 0 7.749001-4.2716552 6.558556-8.6004138l-20.547073-74.74999999c-1.330124-4.83951724-5.734769-8.19434483-10.756858-8.19434483z" fill="#fff" fill-rule="evenodd"/></mask><mask id="I" fill="#fff"><path d="m.96311388.04966909h40.20860722v41.07760361h-40.20860722z" fill="#fff" fill-rule="evenodd"/></mask><g fill="none" fill-rule="evenodd"><g transform="translate(150 24)"><path d="m15.7949885 206.001595c2.5863557 10.967373 6.388614 23.278367 10.3375376 34.891437h65.4710717c1.4761152-4.776267 2.9443452-9.903869 4.3368769-15.346408 8.0445123-31.441383-.4226483-58.630338-8.0429354-70.950828-7.6202871-12.322072-14.1823762-26.97847-2.559546-44.948818 11.6244073-17.9687658 12.7204544-31.949396 12.7204544-31.949396-1.6953246-6.7972388-6.9863145-9.1347292-20.7302718-15.7167352 0 0-.820064-.2753713-2.0943173-.7074193-2.9112273 11.8647028-9.0538221 21.2985422-19.9354407 23.2229758-14.179222 2.5052453-26.9785287-6.1752795-33.4507262-21.4109063-6.2419487 1.8500517-13.19356825 3.8203805-16.5053652 5.6910059 0 0 17.3569701 37.8113221 20.66719 59.1905761 3.3086429 21.38242-18.12814567 44.472458-10.214528 78.034516" fill="#ef5243"/><path d="m55.2981025 84.4957702c10.8816186-1.9244336 17.0242134-11.3582729 19.9354406-23.2229757-4.5545093-1.5446112-15.2658069-5.2352191-18.241693-6.7307698-3.8101435-1.9117729-2.7519455-17.4180232-2.7519455-17.4180232l-20.119955 5.7622227v15.0567937c0 1.4100907-5.7483333 3.2094995-12.2725733 5.1434286 6.4737745 15.2356268 19.2715041 23.9145691 33.4507262 21.4093237" fill="#f9c7af"/><path d="m54.2400623 37.3750009-20.118378 5.7622226v12.7952677c8.5018559 4.6085121 18.0398311 13.1640121 21.2790839 28.7889568 10.8153827-1.9639984 16.9311677-11.3725162 19.8329326-23.1976542-4.5545093-1.5477764-15.2658069-5.2368016-18.241693-6.7307698-3.8101435-1.9117729-2.7519455-17.4180231-2.7519455-17.4180231" fill="#f4a086"/><path d="m66.650154 131.179269c-8.9781239 2.755295-17.4515929 5.784379-21.9367122 5.784379-8.8898093 0-22.0139875-12.532557-28.2212412-4.86964-6.2072537 7.661335-7.12824867 12.730381-2.2693694 16.129792 4.8588792 3.397828 20.3297021-1.27557 27.7402421.210485 3.3054887.664689 14.5845229 1.242336 26.5653427 1.05559 1.0187718-4.77785.8721065-13.515348-1.878262-18.310606" fill="#f9c7af"/><path d="m98.4050825 77.6971072c-2.0864321-8.376667-19.263619 7.0108888-15.02925 21.0310839 3.6303603 12.0213799 2.3103726 28.1764929 2.3103726 28.1764929l16.8160429 17.069853c5.716793-7.010889-2.403418-59.4786085-4.0971655-66.2774298" fill="#ef5243"/><path d="m91.2837728 126.980174c-6.5037384-.954304-15.8130419 1.490803-24.6334611 4.19862 2.7503685 4.796841 2.8970338 13.532757 1.878262 18.312189 14.8636601-.231059 30.8091739-1.636402 33.9743053-5.516921 0 0 7.620287-14.232263-11.2191062-16.993888" fill="#ef5243"/><path d="m29.4779142 13.938375c-3.5325835 6.8906117-3.139899 30.3224898 6.6709052 32.4890602 8.5696689 1.8911991 13.3418106-6.4997112 13.3418106-6.4997112v-15.5394847s-4.8336465-2.5258191-5.4928518-8.4811181c-.5298875-4.7620236-3.3370297-5.2668709-3.3370297-5.2668709s-5.8855363 3.4959489-11.1828343 3.2981247" fill="#f9c7af"/><path d="m14.2233043 127.967712c-4.4299227-8.947983-7.37269085-20.231874-9.96535475-26.598647-4.89357425-12.0150495-5.68998257-28.7683834 1.08343072-32.5919291 12.49020563-6.4189989 17.78119553 15.6518489 18.62806933 22.0566044.8468738 6.4079208 2.5406214 21.3776717 7.1976387 26.7442457z" fill="#ef5243"/><path d="m69.5678471 50.4777665c-8.4655838-5.3080183.9714604-34.595492-13.2266862-45.86355714-11.6874892-9.27874519-30.332906-2.30109083-30.332906 15.21821824v41.9925337c4.6238994-1.4496556 8.1123255-2.7837818 8.1123255-3.8821016v-12.0625271-.272206c-7.7906081-4.9788389-7.9514668-25.2138783-4.6428239-31.6692768 5.297298.1962415 11.1828343-3.2997073 11.1828343-3.2997073s2.8071422.5048473 3.3370297 5.2684535c.6607824 5.9537164 5.4928518 8.4795355 5.4928518 8.4795355v15.5410673c0 14.5930939 3.5010425 30.5472181 11.7884201 31.4318878 8.2889547.8862523 9.700411-10.0874504 16.0480218-9.3784485 0 0 .7065167-6.1958533-7.7590671-11.5038716" fill="#222b56"/><path d="m26.3291838 106.794353c-4.6238994 6.341452-11.8656954 11.885277-12.1069834 21.179848 3.9331531 7.936706 9.0333204 14.037603 16.0969102 13.238394 10.4148129-1.17745 14.0167863-13.472618 15.2500364-24.729605-6.9547736.538082-15.817773-4.986752-19.2399632-9.688637" fill="#ef5243"/><path d="m42.0526495 49.550525c-1.9855011.9052435-9.0254352 7.064697-9.0254352 8.6045604 0 1.5382808 3.1588234 13.1323602 3.1588234 16.6662913 0 3.5323485-3.2266364 18.924652-7.4625824 28.0324773-.6371267 1.370526-1.46823 2.669835-2.3939561 3.940657 3.4221902 4.701885 12.2836126 10.226719 19.2383862 9.688637.545658-4.986752.6276644-9.772514.6276644-13.293784 0 0 .7128248-25.7487952 1.8751079-27.5782732 1.061352-1.6712186 1.0534668-4.4233486 1.0534668-6.7719172v-4.7699366s1.6148953-.1044511 1.709518-2.8913981c.0015771-.0838775.0031541-.1693375.0031541-.2563802 0-3.0385793-6.798646-12.2761771-8.7841471-11.3709337" fill="#f9c7af"/><path d="m214 62v75.152613s24.993028.765976 24.229737 0c-.761713-.764392 0-34.915175 0-34.915175z" fill="#1fc9bd"/></g><path d="m18.5945505 4.82748437c2.0283259 14.02953123.7596552 30.01120313 0 36.04910933-.7581081 6.0363282-18.19304747 60.0066253-18.19304747 60.0066253h42.50511027l11.7058081-57.175469-15.5365747-43.67776562z" fill="url(#a)" mask="url(#q)" transform="translate(393 162)"/><path d="m22.0282959 4.8066223c2.0595887 13.9689023.7713639 29.8815091 0 35.8933224-.7697929 6.010242-22.00350892 60.1998413-22.00350892 60.1998413h46.69029582l11.8862308-57.38092-15.7760414-43.4890112z" fill="url(#c)" mask="url(#r)" transform="translate(390 162)"/><path d="m6.27319149 12.3243547s10.50355051 34.4830527 10.50355051 41.1923681c0 6.7108866-16.73162232 57.3795732-16.73162232 57.3795732h53.34857712s11.4635106-29.0826035 17.0832447-52.3216608c7.7839229-32.1968574-20.432992-38.643771-26.7310771-58.57373733z" fill="url(#d)" mask="url(#s)" transform="translate(419 153)"/><g transform="translate(363 13)"><path d="m9.36972 55.1210911c-6.35224615 3.0584336-12.15212308 16.6794823-6.35224615 29.4665569 5.80144615 12.7870747 6.62686153 10.5007806 8.82849235 20.538595 2.2000615 10.039399 1.3354153 15.599755 19.5149538 28.109367 18.1795385 12.508026 17.6287385 15.845508 18.4525846 22.238252.8269846 6.39433 52.0011694 5.003845 51.1773234-18.902356-.826985-23.907786.478615-51.5145493-14.7570465-64.5378638-15.2340923-13.0217289-76.8640615-16.9125511-76.8640615-16.9125511" fill="#1fc9bd"/><path d="m3.01778769 25.5177053v71.7598261s25.78716921-13.9793722 25.55649231-27.6559135c-.2291077-13.6765413-11.6593846-44.1039126-11.6593846-44.1039126z" fill="#662024"/><path d="m21.12828 68.5778818s3.4334769 5.6158485 4.5978462 8.0289828c1.1643692 2.4147197-4.0015385 13.085149-2.2989231 22.2319107 1.7041846 9.1451767 12.9037846 7.5882127 15.4082769 0 .7548-2.286294 2.7571385-18.5154938 2.7571385-18.5154938v-26.8346234z" fill="#f9c7af"/><path d="m25.7256554 76.6074988c7.2467077-8.203388 14.7476308 26.5270362 2.8685538 28.2901142.0298154.007928.0580616.009513.087877.017441l1.7010461.19026c3.4617231-.004757 7.1447077-2.302149 8.4518769-6.26749.7548-2.286294 2.7571385-18.5139083 2.7571385-18.5139083v-26.8346234l-20.4643385 15.0892237s3.4350462 5.6158485 4.5978462 8.0289828" fill="#f4a086"/><path d="m6.02741538 23.4706636c-3.52292307 22.0765315.3515077 42.4296222 10.88732312 44.8395855 10.5373846 2.4099632 25.6412307-9.2307934 25.6412307-19.5032616 0-10.2724683 10.185877-37.0309876-1.4044615-43.13992727-11.5919077-6.11052517-32.87852308 3.7338575-35.12409232 17.80360337" fill="#f9c7af"/><path d="m14.8850954 21.4586614s-5.50486155 4.6708892-9.54092309 7.095122c-4.03606154 2.4226472-3.04744616-11.5741655 4.77046149-18.1539993 7.8179077-6.57824834 18.0712616-12.17824183 22.2265847-8.39840477 0 0 13.0230461-3.63872737 20.9194153 9.79840307 7.8963693 13.438716 8.451877 25.4774336 10.9453847 28.8355271 2.4935077 3.359679 6.6488307 5.4588838 4.7108307 11.7580838 0 0 13.8531693-2.7999968 15.9308308 6.8588821 2.0776615 9.658879 1.3872 12.7807326 1.3872 12.7807326s-4.3044-3.400902-13.1360308-6.5259267c0 0-5.9473846 4.7343093-11.628 4.7343093s-12.8363077 23.154673-22.8119077 23.154673l-.0831692-55.1405928s-22.5341538-2.9030543-23.6906769-16.7968094" fill="#662024"/></g><path d="m.24258909 111.801239h37.79272001l23.6206473-55.4920559-12.4124-55.48890141c-26.3272291 27.40056341-49.00096731 110.98095731-49.00096731 110.98095731" fill="url(#f)" mask="url(#t)" transform="translate(200 150)"/><path d="m66.3598636.25038291c-33.0077613 1.97006173-59.70681815 12.13532829-64.91142042 20.04077189-3.80670454 5.784202 4.53013637 44.8200854 10.33180682 60.3648331 5.8000909 15.5415981 8.3384205 32.1698011 8.3384205 46.2641671s93.3558745-.543302 93.8992385 0c.544943.543303 11.601761-34.336711 13.050205-51.6877423 1.450022-17.3478817-1.811739-36.5051966 11.601761-50.4216119-5.229875-5.9259331-31.93525-24.7257708-66.6299659-24.72892038-1.8717614 0-3.7624773.05511764-5.6800455.16850249" fill="url(#g)" mask="url(#u)" transform="translate(249 131)"/><g transform="translate(288 61)"><path d="m46.70202 37.1078102s.4621667 28.996806 0 37.6521213c-.4621667 8.6553154-13.7772667 16.4455727-18.7154 16.6602587-4.9412667.217843-15.8922667-7.1398854-17.6109-19.4748542v-26.1822105z" fill="#f9c7af"/><path d="m46.87639 52.8611787c-.0579667-8.4027437-.1739-15.7525792-.1739-15.7525792l-36.3263 8.6553153v21.4685917c3.0268 13.421027 23.1146 9.7524236 27.8976333-2.9645599 2.7416667-7.2914283 5.0854-9.4556518 8.6025667-11.4067679" fill="#f4a086"/><path d="m.74542 25.8434295c1.36456667 21.2444344 9.9561667 41.8085039 23.5736333 39.6411233 16.8871-2.6898883 22.0163667-28.4963985 21.3489667-42.5630618s-8.6213667-22.85615733-20.7301333-22.86879762c-11.5181334-.01103831-25.34710003 7.80289766-24.1924667 25.79073612" fill="#f9c7af"/></g><path d="m.4992 7.71272727c-.9216 4.18129873-.3296 7.79064933 1.3264 8.05870133 1.6528.2680519 3.7424-2.9033767 4.6656-7.08467535.9216-4.18285715.3296-7.79220779-1.3248-8.06025974-.0672-.01090909-.1328-.01558442-.2-.01558442-1.6192 0-3.5808 3.08727273-4.4672 7.10181818" fill="#f9c7af" mask="url(#v)" transform="translate(332 85)"/><g transform="translate(286 57)"><path d="m4.18312873 33.4365746c-2.59295273-3.964169-2.77286546-5.5227042-2.58190546-12.1070422s5.74931637-6.8130704 5.63253091-9.6256901c-.11836363-2.81577469 3.47357822-10.37498596 18.13804362-10.98230991 14.6644655-.60732394 13.7822618 6.1110986 18.3226909 6.54805634 4.5420073.43695775 11.5838546 5.09363377 8.1544655 21.75954927 0 0-3.9864873.380169-5.5567782 8.4347043-.1120509.5710422-.9500655.7382535-1.2783273.2413521-.45136-.6783099-.9611127-1.68-1.3430327-3.0870986-1.0968364-4.0256902-5.4841818 2.0254648-6.2811636-6.0022535-.5665673-5.7183099-14.5287419 4.7781408-24.8879273-4.5005071 0 0-1.5371491 2.0459718-5.94974546 1.9166197-2.56296728-.0757183-2.36885091 7.4046197-2.36885091 7.4046197" fill="#222b56"/><g fill="#385fd4"><path d="m12.5389726 110.964507s1.2073091 1.544338 3.462531-1.89769c2.2552218-3.442028 9.9693745-13.89431 12.6428145-12.8610705l-.0126255-.0189296c-5.425789-1.1263099-14.5334763-8.176-16.09272-19.287662v-.8991549c-4.31474904.6010141-8.45116359 1.3345352-12.3824145 2.1658592-1.08578909 6.1394929 3.52250182 26.0123948 12.3824145 32.7986478"/><path d="m49.1923367 78.9965972c-.4055927 7.5229296-10.5990691 14.3864789-16.5235636 16.192676 2.7981164-1.0868732 13.0752364 12.4288448 14.8570036 15.4055208 1.7801891 2.979831 5.0533382-1.052169 8.3091273-9.360676 2.3625382-6.0338025 6.0160291-16.427718 4.4851927-23.7692391-3.5019854-.9780282-7.1759927-1.8093521-10.9983491-2.4450704-.0315636 1.5616901-.0725963 2.9261971-.1294109 3.9767887"/></g></g><path d="m.924 8.1504c-1.07644444 6.216 3.77533333 24.2864 10.9355556 30.6672s1.1884444 1.5648 3.4128888-1.9264c2.2213334-3.4896 9.8248889-11.4832 12.4615556-10.4368l-.0124444-.0192c-5.3495556-1.1408-14.3251112-8.2912-15.862-19.5616v-6.3888c-5.3915556 2.4336-10.38644449 4.4928-10.9355556 7.6656" fill="url(#h)" mask="url(#w)" transform="translate(287 126)"/><path d="m16.814 11.6384189c-.3951111 7.4816757-10.29622222 14.3151081-16.15288889 16.1871081 2.93377778-.7130675 12.78199999 9.9655541 14.51177779 12.9063649 1.7546667 2.9835 3.9262222-.4964595 7.49-8.6738108 3.6291111-8.325973 5.5937778-18.7152568 3.1608889-24.31070272-1.4917778-3.43094595-6.3326667-6.21681081-8.8075556-7.40894595-.014 4.66260811-.07 8.81768919-.2022222 11.29998647" fill="url(#i)" mask="url(#x)" transform="translate(318 124)"/><path d="m.90287838 39.5450632c-1.64748649 8.8398947 1.15577027 34.1001315 1.88148648 44.7650368l39.19341894 1.5857947c0-24.1306947-7.0168379-72.4903052-18.1460676-85.27805259s-17.41877025 9.33416842-22.92883782 38.92722109" fill="url(#j)" mask="url(#y)" transform="translate(362 155)"/><path d="m28.9784318 11.1668906-28.88434089 4.3513594.38577273 20.3909063h52.42745456c7.7640682 0 16.1162045-6.2540157 14.9447727-23.1938438-.5786591-8.35467187-7.7044773-12.01148437-15.9311591-12.01148437-8.4572045 0-18.0764318 3.86409375-22.9425 10.46306247" fill="url(#k)" mask="url(#z)" transform="translate(336 228)"/><g transform="translate(131 85)"><path d="m179.919585 178.827332 2.493115-2.35481 7.583423 2.707555c1.316731.470326 2.702846.710256 4.1.710256h15.048577s7.121385-1.538094 7.354769-10.00556c.233385-8.469053-7.003115-10.939856-10.155384-10.939856h-16.499347c-.826307 0-1.652615-.084214-2.461576-.25582l-11.733885-2.470803c-1.734615-.365456-3.540192-.07468-5.076115.813538l-6.649885 3.848415c-1.285192.746802-2.469462 1.660443-3.518115 2.718677l-12.065039 12.183997c-1.502808 1.517439-.436808 4.107412 1.690462 4.107412h27.222423c.990307 0 1.944346-.379757 2.666577-1.063001" fill="#f9c7af"/><path d="m319.731319 2.14316322c-11.301807-6.5813924-31.109538 12.13950698-26.847115 34.26550638 4.260846 22.1275882-19.856616 49.5844836-19.856616 49.5844836s-27.332807 11.0574384-38.305038 13.1548401c2.630308 3.7657897 5.629615 9.3572717 6.993654 16.5615287 17.950115-1.490426 43.707577-5.167235 54.118423-13.909587 15.731385-13.2104527 32.443615-61.9241968 32.446771-77.4020682.004729-18.00905401-8.550079-22.25470358-8.550079-22.25470358" fill="#1fc9bd"/><path d="m231.862485 99.4873911h-35.340423s-25.237077 8.6152369-25.893077 10.0881849c-.654423 1.471359-1.966423 10.231189 0 12.292045 1.966423 2.059267 14.748961 5.691586 18.027384 5.032175 3.278423-.660999 28.8435-10.237545 34.742769-10.237545 1.994808 0 9.139847-.192262 18.317539-.953364-1.364039-7.202668-4.364923-12.79574-6.995231-16.5615292-1.148.2192738-2.117808.3400333-2.858961.3400333" fill="#f9c7af"/><path d="m5.38226923 75.8286995s8.85599997 7.0596636 17.91226927 0c9.0562692-7.0596635 2.8179615-19.1181345 2.8179615-19.1181345l-20.73023077 11.1289407z" fill="#f9c7af"/><path d="m17.0370769 10v52.7941439h-17.0370769v-49.9038608z" fill="#1fc9bd"/></g><path d="m17.016.73041486c1.8288 8.55089126 2.576 28.27209264 1.0112 36.48296314-1.664 8.7271983-11.1168 20.986834-17.1296 38.6836528h34.3552c3.2944-21.2623138 6.2704-49.7988669 1.5728-75.16661594z" fill="url(#l)" mask="url(#A)" transform="translate(101 189)"/><path d="m.89.73041486-.81295455 34.59081084s3.9534091 18.9907865 6.65318182 40.5758051h9.07136363c5.9786364-17.6968188 15.3777273-29.9564545 17.0322727-38.6836528 1.5559091-8.2108705.8129546-27.93207188-1.0054545-36.48296314z" mask="url(#B)" transform="translate(87 189)"/><path d="m.19997818.0451509c.81118546 28.270711 3.04589091 56.4045064 4.38892364 77.8483222h39.35827638c5.9308073-17.6920136 15.2547054-29.9483205 16.8960145-38.6731491 1.5434618-8.2086411.8064509-27.9244877-.9974109-36.47305716-.2319927-1.09689855-.4797673-2.02068542-.7449018-2.70211594z" fill="url(#m)" mask="url(#C)" transform="translate(59 186)"/><g transform="translate(33)"><path d="m66.5217921 48.3754785c-34.7343158-9.3898805-58.19417815 6.234031-62.04567993 28.6689345-3.51638337 20.4900379 22.02026923 83.935133 22.02026923 109.592459 0 0 41.1707919 21.38084 78.9416266 2.719958 0 0-5.6655465-27.212266 0-51.313065 5.665547-24.100799 13.198631-37.90982 6.798341-55.1996267-5.590027-15.1040127-29.4699671-30.0764655-45.7145569-34.4686598" fill="#1fc9bd"/><path d="m79.5025174 25.2008287s-13.1105247 16.6098173-18.6407652 21.9039092c-5.5302405 5.2925069 4.6759245 16.1247897 12.4182612 20.7214564 5.1164559 3.035385 15.9016048 6.4068023 12.7219132-3.0655012 0 0-1.7983115-5.2925069 6.913194-12.8136046 0 0-9.6791009-29.1143356-13.4126032-26.7462598" fill="#f9c7af"/><path d="m92.9149633 51.9464545s-4.4886988-13.4951793-8.530573-21.3618196l-4.2700065 2.0304587c-4.9764298 10.2838528-5.8685056 29.6580103 5.8873855 32.1465505 0 0-1.7983115-5.2940919 6.913194-12.8151896" fill="#f4a086"/><path d="m84.6710502 22.2110933c1.1091948-6.3338896-4.509152-6.8078218-6.2697036-1.5216551-2.0138572 6.0390689.2045323 10.2252057 2.5110281 8.8303551 0 0-4.4761122 13.6394196 1.1595412 21.8531874 5.6356533 8.2153529 12.8288993 5.0579184 21.8236031-3.8659552 7.732897-7.6716781 12.76754-17.045708 13.549483-20.6564689 2.037457-9.4231667-7.67311-17.04412304-16.787387-16.5495851-11.1517343.6039069-15.9865648 11.9101218-15.9865648 11.9101218" fill="#f9c7af"/><path d="m3.29750114 22.2110933c-.352425 3.7296403.25487879 6.617615 2.4307885 5.3479839 2.17748304-1.269631 7.33327196-8.7732931 12.03122306-3.3476413 4.6979512 5.4256517 8.5069731 10.4756448 16.8424537 9.5816724 10.7709891-1.1539219 13.2694306-15.8410644 3.7822755-18.4690897 0 0 4.1236871-5.0452379-3.2080115-7.38795285-6.7133816-2.14458276-6.9824203-.8163046-11.6803714-6.12466207-2.7045473-3.05757586-18.91295061-1.42655173-23.33242304 15.34969652 0 0 3.68158259-.7608276 3.13406518 5.0499931" fill="#ef5243" mask="url(#D)" transform="translate(81.373549)"/><path d="m31.4123954 130.502695c.3445584-7.297604 4.8238172-26.227946 11.1438673-38.3219342 6.3184768-12.0955736 3.2158782-27.6481575-5.3713346-33.7379483-8.5289996-6.0454092-20.4894231-4.9739103-26.1549696 3.4490851-15.23136796 22.6504713-10.80874888 73.5751974-2.59441439 90.7619754 1.63153899 3.411044 5.56328039 5.62854 10.89685509 6.961573-11.56237195-5.321038.0330399-31.886601 12.0799962-29.112751" fill="#1fc9bd"/></g><path d="m23.6260465 1.85556757-22.93497673 28.03783783c-.8855814 1.0831712-.33841861 2.7270991 1.01525581 3.0514114l33.69637212 8.0502943c.8175814.1965045 1.676279-.0287567 2.2993488-.5959039l29.4313488-26.8412372c.7400931-.6741862.4506977-1.9043364-.5092093-2.1711352l-38.9118139-10.83171168c-.3463256-.09745345-.6989768-.14378378-1.0484651-.14378378-1.1575814 0-2.2772093.51602402-3.0378605 1.44422823" fill="url(#n)" mask="url(#E)" transform="translate(110 121)"/><g transform="translate(0 129)"><path d="m137.105097 10.3069529c-1.330918-3.83365749-5.134218-6.71088986-7.353994-7.34903708-1.611942-.46468576-13.594942-.25462234-20.031661-.10503171-2.503957.05888141-4.938448.78137228-7.05876 2.1229137-2.028743 1.28425139-4.556382 2.70695368-5.8115184 2.70695368h-20.2337454s-5.5983818-4.2776552-11.938794-7.15329618c-12.0903575-2.78493177-23.7244454 23.88675769-12.1219333 29.23064389 19.5122394 4.8760177 58.0220331-2.2438593 74.2093451-7.818497 3.585428-1.2349184 6.768264-3.4946916 8.923309-6.6345032 1.150937-1.678916 1.935594-3.509014 1.417752-5.0001461" fill="#f9c7af"/><path d="m.00031576.91794273 65.01132724-.38670767 65.011327-.14163368 130.024234-.26576206 130.022654.26417067 65.012906.14004229 65.012906.38989045-65.012906.38829905-65.012906.14004229-130.022654.26417067-130.024234-.26576206-65.011327-.14004229z" fill="#001462" mask="url(#F)" transform="translate(0 134.676725)"/></g><path d="m2.89717073.038c-1.43297561 0-2.59746341 1.116-2.59746341 2.4915v2.976c0 1.3785 1.1644878 2.4945 2.59746341 2.4945h54.81365857c3.1406829 0 5.6897561-2.4495 5.6897561-5.4705 0-1.3755-1.1613659-2.4915-2.5943415-2.4915z" fill="url(#o)" mask="url(#G)" transform="translate(271 260)"/><path d="m6.98173324.45524138c-4.490357 0-7.74900066 4.27006896-6.56014333 8.59882759l20.54866089 74.75158623c1.3301235 4.8395172 5.7331812 8.1943448 10.7552701 8.1943448h116.4207191c4.490357 0 7.749001-4.2716552 6.558556-8.6004138l-20.547073-74.74999999c-1.330124-4.83951724-5.734769-8.19434483-10.756858-8.19434483z" fill="url(#p)" mask="url(#H)" transform="translate(144 177)"/><g transform="translate(446 183)"><g fill="#34aa2e"><path d="m69.7338289 28.1571771c-1.7466.4761273-4.1669111 2.4138546-6.8333556 4.985891-2.7090444 2.5530545-5.6389777 5.5806545-9.3246666 8.3456727-2.2404445 1.7336727-4.4572223 3.306-6.5951111 4.8340363-2.0889778 1.5644182-4.1653334 3.0244364-5.9576889 4.5176728-3.6509778 2.9263636-6.4373334 5.8147636-7.3966223 7.9834363.9592889-2.1465272 1.3679334-6.1279636 3.1902667-10.9556727.8725111-2.4249273 2.1631333-4.9795636 3.8671333-7.5405273 1.7402889-2.5198363 3.9681112-4.9779818 6.6834667-7.0707272 4.5077111-3.3898364 9.5376667-4.5809455 13.5310222-4.8688364 4.0264889-.3353455 7.1031556.2467636 8.8355556-.2309455"/><path d="m32.19534 57.1998335c.1688222-2.1591818-.8835556-5.6296909-1.5809333-10.2027273-.7131556-4.5572181-1.1012889-10.2580909.2903111-16.4493272 1.7245111-7.5642546 5.0252222-13.9785273 8.1870889-18.9549273 3.1508222-5.00487274 6.1296666-8.62565456 7.2688222-11.21667274-1.1438889 2.59734546-1.7608 7.25738182-2.4218889 12.95509094-.6863333 5.7056182-1.3789778 12.4188545-2.9962 19.5006545-1.3016667 5.7957818-3.3969556 10.7041637-5.2240222 14.8216364-1.8381111 4.1032363-3.3543556 7.3823454-3.5231778 9.5462727"/><path d="m.03738889 19.8355481c1.73397778.8098909 5.05362222.8241272 9.16531111 2.0579454 4.0911778 1.1642182 9.0422444 3.5084727 13.0482222 7.9359818 4.8422 5.4620182 7.3003778 11.8889455 8.2707111 17.2402364 1.0413334 5.3813454.7431334 9.6253636 1.2701111 12.0740182-.5238222-2.4834546-2.7705777-6.0979091-5.9513777-9.9290728-3.1492445-3.8896909-7.2151778-7.924909-11.2400889-12.4789636-3.3401556-3.6824727-5.85828891-7.4044909-8.23915558-10.5396545-2.33353333-3.1604728-4.56608889-5.5474364-6.32373333-6.3604909"/></g><path d="m38.1490889.04966909h-34.16204446c-1.81286666 0-3.21551111 1.58656364-3.00251111 3.39141818l4.16848889 35.01354543c.17986667 1.5248728 1.47048889 2.6732728 3.00093334 2.6732728h25.82664444c1.5320222 0 2.8210667-1.1484 3.0025111-2.6732728l4.1669111-35.01354543c.2145778-1.80485454-1.1896444-3.39141818-3.0009333-3.39141818" fill="#ef5243" mask="url(#I)" transform="translate(14.777778 44.742857)"/><path d="m14.0848178 44.9192299 1.5430666 12.9661636c.0836223.7165636.6910667 1.2575455 1.4121112 1.2575455h37.6110666c.7210445 0 1.3284889-.5409819 1.4121111-1.2575455l1.5430667-12.9661636c.1009778-.8478546-.5601111-1.5960546-1.4136889-1.5960546h-40.6940444c-.8551556 0-1.5146667.7482-1.4136889 1.5960546" fill="#ef5243"/></g></g></svg>