<svg height="392" viewBox="0 0 405 392" width="405" xmlns="http://www.w3.org/2000/svg" xmlns:xlink="http://www.w3.org/1999/xlink"><linearGradient id="a"><stop offset="0" stop-color="#0d3a5e"/><stop offset="1" stop-color="#1b1b1b"/></linearGradient><linearGradient id="b" x1="-.00225%" x2="99.986705%" xlink:href="#a" y1="49.937918%" y2="49.937918%"/><linearGradient id="c" x1=".009014%" x2="100.000916%" xlink:href="#a" y1="50.000281%" y2="50.000281%"/><linearGradient id="d" x1=".049725%" x2="100.043985%" xlink:href="#a" y1="50.000353%" y2="50.000353%"/><linearGradient id="e" x1="-.032274%" x2="100.057726%" xlink:href="#a" y1="49.989719%" y2="49.989719%"/><mask id="f" fill="#fff"><path d="m0 392h404.290558v-391.5460566h-404.290558z" fill="#fff" fill-rule="evenodd"/></mask><mask id="g" fill="#fff"><path d="m.49628571.845s2.30571429 2.026 5.43342858 0z" fill="#fff" fill-rule="evenodd"/></mask><mask id="h" fill="#fff"><path d="m.46725 99.9990741 6.484625-99.43240743z" fill="#fff" fill-rule="evenodd"/></mask><mask id="i" fill="#fff"><path d="m1.832 91.79116-1.744-91.0662z" fill="#fff" fill-rule="evenodd"/></mask><mask id="j" fill="#fff"><path d="m1.819 4.59-1.662-4.052z" fill="#fff" fill-rule="evenodd"/></mask><mask id="k" fill="#fff"><path d="m0 392h404.290558v-391.5460566h-404.290558z" fill="#fff" fill-rule="evenodd"/></mask><g fill="none" fill-rule="evenodd"><g><g fill="#eaf5f9"><path d="m87.4487255 24.0183208c7.6451822 0 13.8428815 6.2544339 13.8428815 13.9686981 0 7.7151886-6.1976993 13.9686981-13.8428815 13.9686981s-13.8428815-6.2535095-13.8428815-13.9686981c0-7.7142642 6.1976993-13.9686981 13.8428815-13.9686981"/><path d="m70.2445285 37.5598868c5.1017084 0 9.2365831 4.1733207 9.2365831 9.3210943s-4.1348747 9.3210944-9.2365831 9.3210944c-5.1007859 0-9.2365832-4.1733208-9.2365832-9.3210944s4.1357973-9.3210943 9.2365832-9.3210943"/><path d="m107.166875 37.5598868c5.101708 0 9.236583 4.1733207 9.236583 9.3210943s-4.134875 9.3210944-9.236583 9.3210944c-5.100786 0-9.2365834-4.1733208-9.2365834-9.3210944s4.1357974-9.3210943 9.2365834-9.3210943"/><path d="m70.2448975 56.2011509h36.9352615v-11.858h-36.9352615z" mask="url(#f)"/><path d="m25.9165866 121.615689c7.4938838 0 13.5679612 6.130547 13.5679612 13.692264s-6.0740774 13.691339-13.5679612 13.691339c-7.4938839 0-13.5688839-6.129622-13.5688839-13.691339s6.075-13.692264 13.5688839-13.692264" mask="url(#f)"/><path d="m9.05345672 134.889049c5.00022778 0 9.05391798 4.090113 9.05391798 9.136189 0 5.045151-4.0536902 9.136188-9.05391798 9.136188-5.00022779 0-9.05299544-4.091037-9.05299544-9.136188 0-5.046076 4.05276765-9.136189 9.05299544-9.136189" mask="url(#f)"/><path d="m45.2442198 134.889049c5.0002278 0 9.0529955 4.090113 9.0529955 9.136189 0 5.045151-4.0527677 9.136188-9.0529955 9.136188s-9.053918-4.091037-9.053918-9.136188c0-5.046076 4.0536902-9.136189 9.053918-9.136189" mask="url(#f)"/><path d="m9.053918 153.161057h36.2027563v-11.62317h-36.2027563z" mask="url(#f)"/></g><path d="m100.065444 360.413491h199.259078v-92.758849h-199.259078z" fill="#e5e5e5" mask="url(#f)"/><path d="m100.037768 95.4279623h200.837562v-7.3379812h-200.837562z" fill="#6fdbdf" mask="url(#f)"/><path d="m307.295641 68.3613792v11.8506038c0 1.2878679-1.03787 2.3261132-2.324829 2.3261132h-1.785137v5.5101887.0277359.0277358 158.0924904h1.785137c1.286959 0 2.324829 1.038245 2.324829 2.325189v11.851528c0 1.286944-1.03787 2.325189-2.324829 2.325189h-1.785137v97.71617h-4.648735v-97.71617h-196.174066v97.619094h-4.6496587v-97.619094h-1.7851367c-1.286959 0-2.3248292-1.038245-2.3248292-2.325189v-11.851528c0-1.286944 1.0378702-2.325189 2.3248292-2.325189h1.7851367v-158.1063583-5.5379245h-1.7851367c-1.286959 0-2.3248292-1.0382453-2.3248292-2.3261133v-11.8506037" fill="#cbcbcb" mask="url(#f)"/><path d="m102.362689 246.195877h196.187904v-155.7941128h-196.187904" fill="#e5e5e5" mask="url(#f)"/><path d="m102.362597 85.7638679h196.187904v-3.2256792h-196.187904z" fill="#b1b1b1" mask="url(#f)"/><path d="m100.037768 267.723981h200.837562v-7.351849h-200.837562z" fill="#b1b1b1" mask="url(#f)"/><path d="m252.747677 351.788566h19.054373v-64.086453h-19.054373z" fill="#6fdbdf" mask="url(#f)"/><path d="m243.97569 360.0961v-27.274509-54.395548c0-1.286943 1.356151-2.326113 3.029659-2.326113h33.777369c1.675353 0 3.031503 1.03917 3.031503 2.326113v54.395548 27.274509z" fill="#23c8bc" mask="url(#f)"/><path d="m281.488562 159.805272h-25.875718c-1.286959 0-2.324829-1.038246-2.324829-2.326114v-18.565452-31.441359c0-1.287868 1.03787-2.326113 2.324829-2.326113h25.875718c1.287881 0 2.325751 1.038245 2.325751 2.326113v31.441359 18.565452c0 1.274-1.03787 2.326114-2.325751 2.326114" fill="#cbcbcb" mask="url(#f)"/><path d="m259.666811 153.326547h19.054374v-40.731019h-19.054374z" fill="#23c8bc" mask="url(#f)"/><path d="m259.666811 135.203019h16.743383v-19.839453h-16.743383z" fill="#60f3e5" mask="url(#f)"/><path d="m259.667733 153.769396h16.743383v-13.914151h-16.743383z" fill="#60f3e5" mask="url(#f)"/><path d="m214.377386 159.805272h-25.87664c-1.286959 0-2.324829-1.038246-2.324829-2.326114v-18.565452-31.441359c0-1.287868 1.03787-2.326113 2.324829-2.326113h25.87664c1.286959 0 2.324829 1.038245 2.324829 2.326113v31.441359 18.565452c0 1.274-1.03787 2.326114-2.324829 2.326114" fill="#cbcbcb" mask="url(#f)"/><path d="m192.55582 153.326547h19.054374v-40.731019h-19.054374z" fill="#23c8bc" mask="url(#f)"/><path d="m192.55582 135.203019h16.743383v-19.839453h-16.743383z" fill="#60f3e5" mask="url(#f)"/><path d="m192.55582 153.769396h16.743383v-13.914151h-16.743383z" fill="#60f3e5" mask="url(#f)"/><path d="m147.26538 159.805272h-25.875717c-1.286959 0-2.324829-1.038246-2.324829-2.326114v-18.565452-31.441359c0-1.287868 1.03787-2.326113 2.324829-2.326113h25.875717c1.286959 0 2.32483 1.038245 2.32483 2.326113v31.441359 18.565452c0 1.274-1.037871 2.326114-2.32483 2.326114" fill="#cbcbcb" mask="url(#f)"/><path d="m125.443907 153.326547h19.054373v-40.731019h-19.054373z" fill="#23c8bc" mask="url(#f)"/><path d="m125.443907 135.203019h16.743382v-19.839453h-16.743382z" fill="#60f3e5" mask="url(#f)"/><path d="m125.443907 153.769396h16.743382v-13.914151h-16.743382z" fill="#60f3e5" mask="url(#f)"/><path d="m281.488562 229.028866h-25.875718c-1.286959 0-2.324829-1.038245-2.324829-2.327038v-18.565453-31.440433c0-1.287868 1.03787-2.326114 2.324829-2.326114h25.875718c1.287881 0 2.325751 1.038246 2.325751 2.326114v31.440433 18.565453c0 1.274-1.03787 2.327038-2.325751 2.327038" fill="#cbcbcb" mask="url(#f)"/><path d="m259.666811 222.549679h19.054374v-40.731019h-19.054374z" fill="#23c8bc" mask="url(#f)"/><path d="m259.666811 204.427075h16.743383v-19.839452h-16.743383z" fill="#60f3e5" mask="url(#f)"/><path d="m259.667733 222.992528h16.743383v-13.914151h-16.743383z" fill="#60f3e5" mask="url(#f)"/><path d="m214.377386 229.028866h-25.87664c-1.286959 0-2.324829-1.038245-2.324829-2.327038v-18.565453-31.440433c0-1.287868 1.03787-2.326114 2.324829-2.326114h25.87664c1.286959 0 2.324829 1.038246 2.324829 2.326114v31.440433 18.565453c0 1.274-1.03787 2.327038-2.324829 2.327038" fill="#cbcbcb" mask="url(#f)"/><path d="m192.55582 222.549679h19.054374v-40.731019h-19.054374z" fill="#23c8bc" mask="url(#f)"/><path d="m192.55582 204.427075h16.743383v-19.839452h-16.743383z" fill="#60f3e5" mask="url(#f)"/><path d="m192.55582 222.992528h16.743383v-13.914151h-16.743383z" fill="#60f3e5" mask="url(#f)"/><path d="m147.26538 229.028866h-25.875717c-1.286959 0-2.324829-1.038245-2.324829-2.327038v-18.565453-31.440433c0-1.287868 1.03787-2.326114 2.324829-2.326114h25.875717c1.286959 0 2.32483 1.038246 2.32483 2.326114v31.440433 18.565453c0 1.274-1.037871 2.327038-2.32483 2.327038" fill="#cbcbcb" mask="url(#f)"/><path d="m125.443907 222.549679h19.054373v-40.731019h-19.054373z" fill="#23c8bc" mask="url(#f)"/><path d="m125.443907 204.427075h16.743382v-19.839452h-16.743382z" fill="#60f3e5" mask="url(#f)"/><path d="m125.443907 222.992528h16.743382v-13.914151h-16.743382z" fill="#60f3e5" mask="url(#f)"/><path d="m214.377386 334.248138h-25.87664c-1.286959 0-2.324829-1.038246-2.324829-2.326113v-18.566378-31.440434c0-1.287868 1.03787-2.326113 2.324829-2.326113h25.87664c1.286959 0 2.324829 1.038245 2.324829 2.326113v31.440434 18.566378c0 1.273075-1.03787 2.326113-2.324829 2.326113" fill="#cbcbcb" mask="url(#f)"/><path d="m192.55582 327.768396h19.054374v-40.731019h-19.054374z" fill="#23c8bc" mask="url(#f)"/><path d="m192.55582 309.645792h16.743383v-19.839452h-16.743383z" fill="#60f3e5" mask="url(#f)"/><path d="m192.55582 328.21217h16.743383v-13.914151h-16.743383z" fill="#60f3e5" mask="url(#f)"/><path d="m147.26538 334.248138h-25.875717c-1.286959 0-2.324829-1.038246-2.324829-2.326113v-18.566378-31.440434c0-1.287868 1.03787-2.326113 2.324829-2.326113h25.875717c1.286959 0 2.32483 1.038245 2.32483 2.326113v31.440434 18.566378c0 1.273075-1.037871 2.326113-2.32483 2.326113" fill="#cbcbcb" mask="url(#f)"/><path d="m125.443907 327.768396h19.054373v-40.731019h-19.054373z" fill="#23c8bc" mask="url(#f)"/><path d="m125.443907 309.645792h16.743382v-19.839452h-16.743382z" fill="#60f3e5" mask="url(#f)"/><path d="m125.443907 328.21217h16.743382v-13.914151h-16.743382z" fill="#60f3e5" mask="url(#f)"/><path d="m98.2530923 258.060349h1.7851367 200.837563 1.784214v-7.21317h-1.784214-200.837563-1.7851367z" fill="#e5e5e5" mask="url(#f)"/><path d="m93.6173645 68.3613792c0-1.2878679 1.0378701-2.3261132 2.3248291-2.3261132h1.7851367v-11.795132-51.46109438c0-1.28694339 1.0378702-2.3261132 2.3248287-2.3261132h17.171447c1.286959 0 2.324829 1.03916981 2.324829 2.3261132v2.10422642h161.857005v-2.10422642c0-1.28694339 1.03787-2.3261132 2.325751-2.3261132h17.171447c1.287881 0 2.325752 1.03916981 2.325752 2.3261132v51.47496228 11.7960566h1.784214c1.286959 0 2.324829 1.0382453 2.324829 2.3251887" fill="#ed5243" mask="url(#f)"/><path d="m277.18569 357.64573v-72.588415c0-1.203736-.968679-2.172641-2.172608-2.172641h-21.932733c-1.20393 0-2.171686.968905-2.171686 2.172641v72.588415" mask="url(#f)" stroke="#23b09f" stroke-linecap="round" stroke-linejoin="round" stroke-width="2.801"/><path d="m269.574642 321.649683c1.146732 0 2.075741.929151 2.075741 2.076491 0 1.146415-.929009 2.07649-2.075741 2.07649-1.145808 0-2.07574-.930075-2.07574-2.07649 0-1.14734.929932-2.076491 2.07574-2.076491" fill="#23b09f" mask="url(#f)"/><path d="m364.926219 67.186766c10.398075 0 18.826503 8.5842453 18.826503 19.172868 0 10.5895471-8.428428 19.173792-18.826503 19.173792s-18.825581-8.5842449-18.825581-19.173792c0-10.5886227 8.427506-19.172868 18.825581-19.172868" fill="#eaf5f9" mask="url(#f)"/><path d="m341.536315 85.7789377c6.932051 0 12.550388 5.7228302 12.550388 12.7825283 0 7.058774-5.618337 12.781604-12.550388 12.781604-6.93205 0-12.550387-5.72283-12.550387-12.781604 0-7.0596981 5.618337-12.7825283 12.550387-12.7825283" fill="#eaf5f9" mask="url(#f)"/><path d="m391.73971 85.7789377c6.93205 0 12.550387 5.7228302 12.550387 12.7825283 0 7.058774-5.618337 12.781604-12.550387 12.781604-6.932051 0-12.550388-5.72283-12.550388-12.781604 0-7.0596981 5.618337-12.7825283 12.550388-12.7825283" fill="#eaf5f9" mask="url(#f)"/><path d="m341.536777 111.342792h50.203394v-16.2679995h-50.203394z" fill="#eaf5f9" mask="url(#f)"/><path d="m5.59481207 360.413953 47.48740323-.250547 47.4864807-.091529 94.974806-.173811 94.973884.172887 47.487403.090604 47.487403.252396-47.487403.252396-47.487403.091528-94.973884.172887-94.974806-.173811-47.4864807-.091528z" fill="#969baa" mask="url(#f)"/></g><g transform="translate(41 178)"><path d="m314.55917 9.04293593s-2.778559-4.43934199-2.240922-5.21196537c.471239-.61420779 1.976253 2.26135931 1.976253 2.26135931s-.48876-3.0228658-.910201-4.48751515 1.380518-1.92877922 2.879078.60679654c1.497636 2.53464935.872391 6.83132467.872391 6.83132467z" fill="#f9c6ae"/><path d="m193.421741 54.6620848s-3.340173-1.0616623-3.757925 3.9696537c0 2.8811256.918501 2.8042338.918501 2.8042338l3.576254-2.8042338z" fill="#f9c6ae"/><path d="m99.6303862 111.455184-6.6139482 102.543982h6.6877234l17.3961956-85.625939 10.223401 85.625939h6.267205l.355043-102.543982z" fill="#212b55"/><path d="m117.040692 63.4620242c-2.932565 0-5.309049-2.3873506-5.309049-5.3323982v-8.8888745h10.617175v8.8888745c0 2.9450476-2.376484 5.3323982-5.308126 5.3323982" fill="#f9c6ae"/><path d="m108.536161 39.0606511s-2.810835-.2992295-2.810835 2.6597143c0 2.9598701 3.620518 3.2600259 3.620518 3.2600259z" fill="#f9c6ae"/><path d="m125.544853 39.0606511s2.810836-.2992295 2.810836 2.6597143c0 2.9598701-3.620519 3.2600259-3.620519 3.2600259z" fill="#f9c6ae"/><path d="m117.040692 53.1431481c-4.754813 0-8.644611-3.9085109-8.644611-8.6841386v-6.8507792c0-4.7756277 3.889798-8.6841385 8.644611-8.6841385 4.75389 0 8.644611 3.9085108 8.644611 8.6841385v6.8507792c0 4.7756277-3.890721 8.6841386-8.644611 8.6841386" fill="#f9c6ae"/><path d="m54.8348127 115.812168-5.7000577 98.187091h8.979366l16.1641499-76.349827 10.3792507 76.349827h8.9885879l.5855908-98.187091z" fill="#23c8bc"/><path d="m92.9552968 74.3654632c0-24.2968745-12.0770029-20.753368-24.169683-20.753368s-11.5891642 20.753368-11.5891642 20.753368l-3.5218444 45.6801988c13.8854179 4.730234 27.6242075 4.835844 41.2062248 0z" fill="#5977da"/><path d="m67.380288 42.256014-.778328-5.689065" fill="#f9c6ae"/><path d="m74.7753314 57.7968606c-2.8182132 0-5.1015562-.0731861-5.1015562-2.9042857v-8.5405455h10.2031124v8.5405455c0 2.8310996-2.2842651 2.9042857-5.1015562 2.9042857" fill="#f9c6ae"/><path d="m74.7753314 50.1006424c-4.5694524 0-8.3080115-3.7556537-8.3080115-8.346v-6.5830476c0-4.5894199 3.7385591-8.3450736 8.3080115-8.3450736 4.5694525 0 8.3070893 3.7556537 8.3070893 8.3450736v6.5830476c0 4.5903463-3.7376368 8.346-8.3070893 8.346" fill="#f9c6ae"/><path d="m307.546375 74.3654632c0-24.2968745-12.077003-20.753368-24.169683-20.753368s-11.589165 20.753368-11.589165 20.753368l-2.361729 41.4465198c13.131989 5.27774 26.264899 5.27774 39.396888 0z" fill="#ff5140"/><path d="m269.42589 115.812168-5.700979 98.187091h8.980288l16.718386-81.929576 9.825014 81.929576h8.988588l.585591-98.187091c-13.132911 4.724675-26.264899 4.724675-39.396888 0" fill="#212b55"/><path d="m281.192853 36.5673195s-2.702017-.2881126-2.702017 2.5568831c0 2.8440693 3.481268 3.1321818 3.481268 3.1321818z" fill="#f9c6ae"/><path d="m297.539228 36.5673195s2.702017-.2881126 2.702017 2.5568831c0 2.8440693-3.480346 3.1321818-3.480346 3.1321818z" fill="#f9c6ae"/><path d="m289.366501 58.1026675c-2.818213 0-5.101556-.3789004-5.101556-3.21v-8.5414718h10.203113v8.5414718c0 2.8310996-2.284265 3.21-5.101557 3.21" fill="#f9c6ae"/><path d="m289.366501 50.1006424c-4.569452 0-8.308011-3.7556537-8.308011-8.346v-6.5830476c0-4.5894199 3.738559-8.3450736 8.308011-8.3450736 4.568531 0 8.30709 3.7556537 8.30709 8.3450736v6.5830476c0 4.5903463-3.738559 8.346-8.30709 8.346" fill="#f9c6ae"/><path d="m201.103677 56.3520364s-11.962651-.7865195-14.09291 12.651013c-2.5683 16.1926666 6.716311 18.0408484-2.5683 42.4516706h34.316542s-7.613603-8.863861-1.543747-29.1169694c6.070778-20.2540346-6.642536-25.9857142-16.111585-25.9857142" fill="#5977da"/><path d="m201.852957 61.5468632c-2.932565 0-5.309049-.4724675-5.309049-3.4165887v-8.8888745h10.617176v8.8888745c0 2.9441212-2.376485 3.4165887-5.308127 3.4165887" fill="#9f684f"/><path d="m194.158478 44.980113-.810605-5.91974" fill="#f9c6ae"/><path d="m201.852957 53.1431481c-4.754813 0-8.644611-3.9085109-8.644611-8.6841386v-6.8507792c0-4.7756277 3.889798-8.6841385 8.644611-8.6841385 4.75389 0 8.643689 3.9085108 8.643689 8.6841385v6.8507792c0 4.7756277-3.889799 8.6841386-8.643689 8.6841386" fill="#f9c6ae"/><path d="m12.1254179 117.623386-6.24876084 96.375966h6.31884724l16.4352738-80.392667 9.6608646 80.392667h5.920461l.3365995-96.375966z" fill="#f9c6ae"/><path d="m27.8674813 65.5591316s-11.3023631-.7429784-13.3155044 11.9534286c-2.4262824 15.298684 6.3455908 17.0458874-2.4262824 40.1106408h32.4223631s-7.1930835-8.375645-1.4579827-27.512433c5.7360231-19.1358615-6.2755043-24.5516364-15.2225936-24.5516364" fill="#ff5140"/><g fill="#f9c6ae"><path d="m28.5753545 72.2774346c-2.7702594 0-5.0157925-2.2558008-5.0157925-5.0378008v-8.3988052h10.031585v8.3988052c0 2.782-2.2455332 5.0378008-5.0157925 5.0378008"/><path d="m20.5399424 49.2222234s-2.6559078-.2834805-2.6559078 2.513342c0 2.7958961 3.4213256 3.0793766 3.4213256 3.0793766z"/><path d="m36.6107666 49.2222234s2.6559078-.2834805 2.6559078 2.513342c0 2.7958961-3.4213257 3.0793766-3.4213257 3.0793766z"/><path d="m28.5753545 62.5275576c-4.4919885 0-8.1678386-3.692658-8.1678386-8.2051862v-6.4728052c0-4.5125281 3.6758501-8.2042597 8.1678386-8.2042597 4.4919884 0 8.1669164 3.6917316 8.1669164 8.2042597v6.4728052c0 4.5125282-3.674928 8.2051862-8.1669164 8.2051862"/><path d="m225.575931 110.903323-6.817752 103.096121h6.893371l17.930145-86.094701 10.537867 86.094701h6.459942l.36611-103.096121z"/><path d="m242.749049 54.1066113s-12.329683-.8106061-14.52634 13.0401039c-2.646686 16.6901471 6.922882 18.5948398-2.646686 43.7569788h35.369683s-7.845994-9.137152-1.589856-30.0137321c6.256138-20.8756537-6.847262-26.7833506-16.606801-26.7833506"/><path d="m243.52083 61.4355091c-3.021095 0-5.472277-2.4605368-5.472277-5.4972987v-9.1603117h10.944554v9.1603117c0 3.0367619-2.45026 5.4972987-5.472277 5.4972987"/><path d="m234.755504 36.2841169s-2.898443-.3084935-2.898443 2.7421645 3.733025 3.3591515 3.733025 3.3591515z"/><path d="m252.287078 36.2841169s2.897521-.3084935 2.897521 2.7421645-3.732103 3.3591515-3.732103 3.3591515z"/><path d="m243.52083 50.7990606c-4.899597 0-8.910202-4.0280173-8.910202-8.9509437v-7.0601472c0-4.9238528 4.010605-8.9509437 8.910202-8.9509437 4.900519 0 8.910202 4.0270909 8.910202 8.9509437v7.0601472c0 4.9229264-4.009683 8.9509437-8.910202 8.9509437"/></g><path d="m178.631562 71.4296797c0-24.7749005-12.314928-21.1628399-24.646455-21.1628399-12.331528 0-11.817868 21.1628399-11.817868 21.1628399l-2.407838 42.2636103c13.391123 4.606095 26.782247 4.606095 40.172449 0z" fill="#212b55"/><path d="m139.759124 113.693383-5.812565 100.305783h9.156427l17.047608-83.726805 10.019596 83.726805h9.165649l.596657-100.305783c-13.280461 3.902026-26.67343 3.83903-40.173372 0" fill="#e0372f"/><path d="m160.092311 54.8847004c-2.872622 0-5.202075-.4242943-5.202075-3.3109783v-8.7100779h10.405072v8.7100779c0 2.886684-2.329452 3.3109783-5.202997 3.3109783" fill="#f9c6ae"/><path d="m160.092311 46.6872035c-4.658905 0-8.471239-3.8297663-8.471239-8.5109005v-6.7127446c0-4.6802078 3.812334-8.509974 8.471239-8.509974 4.659827 0 8.472162 3.8297662 8.472162 8.509974v6.7127446c0 4.6811342-3.812335 8.5109005-8.472162 8.5109005" fill="#f9c6ae"/><path d="m109.901003 57.7968606s-6.842651 2.3780866-18.9943517 12.357342c-12.1517003 9.9774026-21.2278963 11.0677835-21.2278963 11.0677835l.0756196 7.6317403s22.6305476-2.8181299 38.4359654-18.5939134" fill="#23c8bc"/><path d="m23.2474928 67.2771532s-16.05256485-10.1413766-18.58766571-39.4223203c-2.25291066 0-2.50835735.0129697-2.50835735.0129697s-3.47665706 36.2123203 12.71608066 53.8937229" fill="#ff5140"/><path d="m33.5910548 66.3218424s7.2410374-.0018528 21.9739481 5.4324502c14.7329106 5.4343031 23.4356196 2.2094806 23.4356196 2.2094806l1.1785591 2.224303s-20.838732 11.0612987-40.9129683 1.3479221" fill="#ff5140"/><path d="m137.815239 140.191029c-14.078155 2.759767-28.160922 2.759767-42.2473773 0 0-17.79535 3.7505475-31.428355 6.1058213-38.23374 1.921844-5.5547358 2.416138-11.504121 1.327032-17.282121-.852104-4.5208658-1.89049-8.8092035-.802306-15.672026 2.131182-13.4375325 14.092911-12.651013 14.092911-12.651013 9.469971 0 22.182363 5.7307533 16.111585 25.9857143-.104208.348329-.204726.6948052-.301556 1.0366493-1.908934 6.7711083-1.502248 13.9183377.750663 20.5829094 5.553429 16.432606 4.963227 36.233627 4.963227 36.233627" fill="#23c8bc"/><path d="m123.821648 57.7968606s6.842652 2.3780866 18.994352 12.357342c12.1517 9.9774026 21.167954 9.4743636 21.167954 9.4743636v7.7327186s-22.646225-1.3256883-38.451643-17.1014718" fill="#23c8bc"/><path d="m69.6735908 53.6063515s-8.7792507-.9134372-25.0669741 11.681065c-15.7491643 10.3229523-29.9453602 3.353593-29.9453602 3.353593l-.9609222 2.3280606s7.2714697 10.6638702 22.5669164 8.9592814c15.2954467-1.7045887 26.5664554-9.5447705 26.5664554-9.5447705z" fill="#5977da"/><path d="m206.29819 56.7998615s7.076888 1.5378355 20.329683 9.982961c13.253718 8.4469784 23.552738 7.6836191 23.552738 7.6836191l-.473084 3.2563203s-22.655446 5.006303-40.226858-8.7554719" fill="#5977da"/><path d="m79.877072 53.4687801s7.5914698-2.4188485 25.794582 7.1703896c17.283689 7.4427532 30.066167-1.4581645 30.066167-1.4581645l2.077695 3.0627013s-6.060634 10.4081818-21.41879 11.3744242c-15.359078.9680953-27.8058787-4.8061991-27.8058787-4.8061991z" fill="#5977da"/><path d="m192.881429 58.6319238s-5.89925 4.2170043-14.765187 17.2283896c-8.864092 13.0104589-18.273199 15.4256018-18.273199 15.4256018l1.487493 4.5097489s22.655447-5.1137663 33.401729-24.7211689" fill="#5977da"/><path d="m165.23011 50.0834113s8.826282-.846736 23.741786 13.3606406c14.612104 11.8913594 29.173487 6.3208745 29.173487 6.3208745l1.174871 4.9544242s-8.507205 7.4195931-23.548127 4.1475239c-15.04-3.2711429-25.450605-12.2322771-25.450605-12.2322771z" fill="#212b55"/><path d="m153.985107 50.2669927s-9.148127-.1879356-24.063631 14.0194411c-14.612104 11.8904329-29.171643 6.2643636-29.171643 6.2643636l-1.7466284 4.2318268s9.0771184 8.1977749 24.1180404 4.9257057c15.04-3.2711429 25.450605-12.2322771 25.450605-12.2322771z" fill="#212b55"/><path d="m281.971827 53.831561s-8.826282.0917143-23.588703 14.4584329c-12.243919 13.5978009-28.36196 7.3250996-28.36196 7.3250996l-.614178 2.4846234s7.337867 9.1204762 22.342824 5.6862857c15.004034-3.4341905 25.31781-12.5064935 25.31781-12.5064935z" fill="#ff5140"/><path d="m294.468242 53.5420589s17.217291-10.6129178 20.073314-43.60782687h2.594121s11.333718 20.94328137-13.225129 59.83847617" fill="#ff5140"/><path d="m248.992738 54.5897325s7.220749.5363896 21.512853 7.0518095c14.292104 6.5163463 23.696599 3.667645 23.696599 3.667645l.960922 2.3280606s-16.672276 9.8569697-41.337175-1.4424156" fill="#f9c6ae"/><path d="m238.048922 54.7769593s-7.132219-1.5906407-22.575216 1.2256364c-11.328184 2.0668138-18.848645-.0602165-22.052334-1.3405109-1.021787-.407619-2.170836.0648485-2.638386 1.0644416-.459251.9829178-.108819 2.1492641.823515 2.6986234 5.036081 2.9645021 21.191931 11.1409697 38.936715 6.080935" fill="#f9c6ae"/><path d="m28.5753545 37.4774216s-7.8967147 0-10.6918732 7.9003983c-2.7942363 7.9013247-10.20034585 14.1721732-4.6653603 18.0843896 5.5359078 3.9122165 1.4247839 11.7227533 12.8636312 13.3393334 11.4397694 1.6156536 13.1845533-5.9252987 13.1845533-12.5694892 0-6.6432641 5.1375216-4.8349178 3.0819596-13.1466407-2.0555619-8.3107965-8.6879539-13.6079914-13.7729106-13.6079914" fill="#212b55"/><path d="m74.533072 25.8955749s-7.6975216-.1973247-9.6636311 8.9250043c-1.9661095 9.1204762 4.2605188 17.1931862 9.9061672 17.1931862 5.6447262 0 10.8283573-6.1865455 9.8453026-16.7809351-.9830548-10.5934632-10.0878387-9.3372554-10.0878387-9.3372554" fill="#6c5d29"/><path d="m205.159839 26.6337359c5.188242-5.5825281-7.163574-7.1481558-8.104208-2.941342-.094985.4252208.609568 3.1534892 1.256023 2.941342-.001844.0009264-8.604034 2.8218355-7.154351 13.5496277.509049 3.767697 1.566801 8.2598442 4.84242 10.9918182 2.944554 2.4549784 7.927147 2.6309957 11.124381.4261472 3.727493-2.5698528 4.66536-7.540026 5.190086-11.417039 1.450605-10.729645-7.154351-13.5505541-7.154351-13.5505541" fill="#212b55"/><path d="m255.450744 35.1361134c-3.023862-13.7265714-22.440577-13.0345454-24.718387.8365455-.306167 1.8648571-.480461 3.9678008-.480461 6.3384762v30.975342c9.114928 2.3771601 17.794582 2.3447359 26.056484 0v-30.6548052s.042421-3.4119567-.857636-7.4955585" fill="#ffa63a"/><path d="m296.45132 25.4395974c-2.37464-4.6589004-12.02536-4.6848398-14.412911 0-1.982709 3.8927619-6.67389 4.8191688-5.779366 10.9760693.89268 6.1550476 4.301095 6.3505194 5.780288 10.4044762 2.192047 6.0077489 12.219943 6.0068225 14.411989 0 1.479193-4.0539568 4.887608-4.2494286 5.78121-10.4044762.89268-6.1569005-3.798501-7.0833074-5.78121-10.9760693" fill="#655e1d"/><path d="m4.66010375 27.8551108s.8465706-5.1739827.05256484-5.6760952c-.67135447-.3835325-.94801153 2.8533333-.94801153 2.8533333s-.7156196-2.9765454-.89268011-4.4912208c-.17706052-1.5137489-2.01775217-1.2395324-2.41982709 1.6805022-.40207493 2.920961 1.69959654 5.6464502 1.69959654 5.6464502z" fill="#ba7e64"/><path d="m14.6609798 68.6414727s-4.4191354-2.7903376-5.18731986-2.2502424c-.61233429.4733939 2.25014406 1.98529 2.25014406 1.98529s-3.00910659-.491922-4.4670893-.91529-1.92 1.3877576.60403458 2.8922424c2.52403462 1.5054113 5.83930832.6160606 5.83930832.6160606z" fill="#f9c6ae"/><path d="m69.6790317 81.2220788s-5.1642651-.7587273-5.6502594.0472467c-.368876.6809091 2.8569453.901394 2.8569453.901394s-2.9500865.771697-4.4541787.9764329-1.1988473 2.0482857 1.7152738 2.4003203c2.914121.3520347 5.6078386-1.0097835 5.6078386-1.0097835z" fill="#f9c6ae"/><path d="m79.0003458 73.9637732s4.1323343-3.2025888 4.9493948-2.7384589c.6547551.4113247-2.050951 2.1918788-2.050951 2.1918788s2.9482421-.7791083 4.3591931-1.3405108c1.410951-.5623291 2.0435735 1.1969177-.3246109 2.9376363-2.3691067 1.7397922-5.7544669 1.1737576-5.7544669 1.1737576z" fill="#ba7e64"/><path d="m100.749741 70.5503342s-4.4191358-2.7903377-5.1873203-2.2502424c-.6123342.4733939 2.2501441 1.98529 2.2501441 1.98529s-3.0091066-.4919221-4.4670893-.91529c-1.4579827-.423368-1.92 1.3877576.6040346 2.8922424 2.5240346 1.5054113 5.8393083.6160606 5.8393083.6160606z" fill="#f9c6ae"/><path d="m159.842859 91.2859152s-5.159654.7930043-5.388358 1.7073679c-.154928.7596537 2.994352.0213074 2.994352.0213074s-2.595965 1.6063896-3.97464 2.2437576c-1.378674.6382943-.548703 2.3113852 2.340519 1.7916709 2.8883-.5215671 4.816599-3.3721212 4.816599-3.3721212z" fill="#212b55"/><path d="m163.983769 79.6289368s4.803689-2.0519913 5.476888-1.3960952c.530259.5651082-2.536023 1.6017575-2.536023 1.6017575s3.049683-.0064848 4.556542-.1917662c1.506859-.1871342 1.676542 1.6749437-1.053141 2.7588398s-6.444266.4113247-6.444266.4113247z" fill="#f9c6ae"/><path d="m218.145291 69.7651117s4.803689-2.0519914 5.476888-1.3960952c.529337.5651082-2.536023 1.6017575-2.536023 1.6017575s3.04876-.0064848 4.555619-.1926926 1.676542 1.6758701-1.052219 2.7597662c-2.729683 1.0838961-5.863285-.3214632-5.863285-.3214632z" fill="#f9c6ae"/><path d="m229.16113 75.3262398s-4.803689-2.0519913-5.476888-1.3960952c-.530259.5651082 2.535101 1.6017576 2.535101 1.6017576s-3.048761-.0064849-4.55562-.1926927c-1.506858-.1862078-1.676541 1.6758702 1.053142 2.7597663 2.72876 1.0838961 5.862363-.3214632 5.862363-.3214632z" fill="#f9c6ae"/><path d="m294.202559 65.3094649s4.419136-2.791264 5.188242-2.2502424c.611412.4724675-2.251066 1.9843636-2.251066 1.9843636s3.009106-.4909956 4.467089-.9143636 1.92 1.3877576-.604034 2.8922424c-2.523113 1.5044849-5.839309.6160606-5.839309.6160606z" fill="#f9c6ae"/><path d="m16.1122305 100.324775s-12.02259361 26.619377-12.02259361 58.769402c8.55331411 3.985403 39.77406341 2.649524 45.04530261 0 0 0 1.1149279-43.16593-8.092219-58.769402 0 0-9.6119885 3.025645-24.93049 0" fill="#212b55"/><path d="m216.20279 106.256836c-9.514237 3.16368-24.29049 2.354927-29.951816 0 0 0-4.624784 6.611767-3.859366 21.406485.396542 7.656753.18536 15.332035-.267435 22.985082l-4.295562 63.351412h6.687723l17.396196-85.626866 10.223401 85.626866h6.267204l.326456-63.816468c.033199-7.391801.37902-14.787307 1.291066-22.122597 1.374986-11.056667-.466628-16.852269-3.817867-21.803914" fill="#212b55"/><path d="m258.353337 84.6219922c-9.971642 1.9574978-19.676772 2.0195671-29.07389-.084303 0 0-6.84634 23.9179738-6.84634 54.8256878 10.342363 3.540728 36.027204 1.69162 41.80657 0 0 0-.514582-40.0606142-5.88634-54.7413848" fill="#212b55"/><path d="m68.7856138 53.6117247.8880692-.4141039s-.0055331 4.2818528 5.1015562 4.2818528 5.1070893-4.464355 5.1070893-4.464355l.7783286.2992295s.8816138 5.6649783-5.8854179 5.6649783-5.9896254-5.3676017-5.9896254-5.3676017" fill="#23c8bc"/><path d="m154.890605 49.2412147s.308012 4.8293593 5.202075 4.8293593c4.894064 0 5.202075-5.0248311 5.202075-5.0248311l1.558538 1.1302164s.076505 5.7668831-6.760613 5.7668831c-6.836196 0-6.836196-5.6242164-6.836196-5.6242164z" fill="#f9c6ae"/><path d="m103.51004 92.7560303-.194582 2.1381472s11.871355 4.0372814 27.670317 0l-.094063-2.1381472c-15.597003 3.4063983-27.381672 0-27.381672 0" fill="#212b55"/><path d="m58.2173141 125.14053 12.8147551 2.456831s.8936023 10.052442-7.1838617 10.052442c-8.0765418 0-5.6308934-12.509273-5.6308934-12.509273" fill="#009286"/><path d="m90.3391354 125.14053-12.814755 2.456831s-.8936023 10.052442 7.1838617 10.052442c8.0765418 0 5.6308933-12.509273 5.6308933-12.509273" fill="#009286"/><path d="m272.07811 112.960595s18.682651 5.466727 34.039884 0" fill="#e0372f"/></g><path d="m.49628571.845s2.30571429 2.026 5.43342858 0z" fill="url(#b)" mask="url(#g)" transform="translate(239 204)"/><g transform="translate(99 232)"><path d="m128.825035 50.7318136s15.468297 4.1203389 29.317012 0l.344808 1.1894915s-4.643354 2.4414407-14.830447 2.4414407c-10.188942 0-15.193745-2.4414407-15.193745-2.4414407z" fill="#23c8bc"/><path d="m134.963822 54.2649576v-2.3733898l1.16107.1547458v2.4871186z" fill="#212b55"/><path d="m151.924685 54.3622797v-2.2997458l-1.054762.1351695v2.1645763z" fill="#212b55"/><g fill="#2f509d"><path d="m.82245523 2.60867797s3.07923837 6.24669491 0 14.64211863"/><path d="m32.6679366 14.2065932s-3.2807616-5.69576269 0-13.51601693"/></g></g><path d="m.46725 99.9990741 6.484625-99.43240743z" fill="url(#c)" mask="url(#h)" transform="translate(176 292)"/><path d="m1.832 91.79116-1.744-91.0662z" fill="url(#d)" mask="url(#i)" transform="translate(217 292)"/><path d="m1.819 4.59-1.662-4.052z" fill="url(#e)" mask="url(#j)" transform="translate(203 268)"/><g><path d="m162.486185 206.30396c-3.036117-1.072452-6.408964-.664735-9.273486.808038-1.518519.780302-3.167118 1.930415-4.532494 3.560359.004613-.02034.006458-.03051.006458-.03051s-2.630194 3.088849-3.783383 5.282755c-1.149499 2.186509-8.064943 8.481623-7.056594 14.478113 0 0 .151298-2.371415 1.852483-4.694755-.658702 1.589265-.677153 3.355114.562756 5.761661 2.687392-3.986566 9.750444 1.658604 21.373667 1.658604 10.460809 0 13.496925-22.353246.850593-26.824265" fill="#212b55"/><path d="m210.988117 207.29977c0-3.133227-2.502881-4.936057-5.033439-5.958585-3.568429-1.442264-7.65164-1.434868-10.935.575981-1.829419 1.120528-3.502005 2.927981-4.040775 5.779226h-.020296l-.000922.103548c-.102404.578754-.175285 1.18432-.175285 1.852754 0 1.687264.041515 3.283.107938 4.76317l-.107938 10.610811.598736-2.094056-.000923 2.094056h18.686276s.078416-.762735.297061-4.157603l.624567 4.157603z" fill="#6c5d29"/><path d="m317.053558 233.71567s1.949351-3.997661 6.578713-3.160038c4.627517.836698 5.322198 2.829057 8.1 1.600359 2.776879-1.227774 4.204989-3.024133 6.615615-3.024133 0 7.054151-.916093 12.460793-7.310296 13.624774-6.39328 1.164906-7.524328-9.732509-13.984032-9.040962" fill="#e0372f"/><g fill="#a48ae9"><path d="m269.261159 256.053291.58213-2.446302.859818.288453-.614419 2.480509z"/><path d="m355.256959 188.347679h2.595137v-.889396h-2.595137z" mask="url(#k)"/></g></g></g></svg>