<svg height="439" viewBox="0 0 359 439" width="359" xmlns="http://www.w3.org/2000/svg" xmlns:xlink="http://www.w3.org/1999/xlink"><linearGradient id="a" x1="92.37364%" x2="7.355487%" y1="50.000089%" y2="50.000089%"><stop offset="0" stop-color="#ff8cb6"/><stop offset=".1543" stop-color="#ff91ad"/><stop offset=".4091" stop-color="#ff9f94"/><stop offset=".7309" stop-color="#ffb56b"/><stop offset="1" stop-color="#ffca44"/></linearGradient><linearGradient id="b"><stop offset="0" stop-color="#5a9e70"/><stop offset="1" stop-color="#ffca44"/></linearGradient><linearGradient id="c" x1="49.999918%" x2="49.999918%" xlink:href="#b" y1="18.397718%" y2="137.338968%"/><linearGradient id="d" x1="49.421692%" x2="56.799766%" xlink:href="#b" y1="69.178526%" y2="-27.936283%"/><linearGradient id="e"><stop offset="0" stop-color="#1fc9bd"/><stop offset=".0934" stop-color="#28cbbf"/><stop offset=".2478" stop-color="#41d1c6"/><stop offset=".4442" stop-color="#6adbd0"/><stop offset=".6748" stop-color="#a3e9df"/><stop offset=".9314" stop-color="#ebfaf1"/><stop offset="1" stop-color="#fffff6"/></linearGradient><linearGradient id="f" x1="92.37364%" x2="7.355487%" xlink:href="#e" y1="50.000089%" y2="50.000089%"/><linearGradient id="g" x1="0%" x2="100%" xlink:href="#e" y1="50.000089%" y2="50.000089%"/><linearGradient id="h" x1="49.99992%" x2="49.99992%" xlink:href="#b" y1="31.478492%" y2="149.50516%"/><linearGradient id="i" x1="-.000165%" x2="99.99988%" xlink:href="#b" y1="49.999821%" y2="49.999821%"/><g fill="none" fill-rule="evenodd"><g fill="#d7eef9" fill-rule="nonzero" stroke="#e6e6e6"><ellipse cx="82.189333" cy="27.480741" rx="11.861333" ry="11.943704"/><ellipse cx="67.448" cy="35.085185" rx="7.914667" ry="7.96963"/><ellipse cx="99.085333" cy="35.085185" rx="7.914667" ry="7.96963"/><path d="m67.448 32.915556h31.648v10.139259h-31.648z"/></g><g transform="translate(89)"><path d="m5.354839 206.361538h154.219355v71.638462h-154.219355z" fill="#e6e6e6" fill-rule="nonzero"/><path d="m5.33341935 67.6823077h155.44025765v5.6669231h-155.44025765z" fill="#70dce0"/><g fill-rule="nonzero"><path d="m165.742968 52.4457692v9.1526154c0 .9943846-.803226 1.7963077-1.799226 1.7963077h-1.381548v4.2555385.0213846.0213846 122.095462h1.381548c.996 0 1.799226.801923 1.799226 1.796307v9.152616c0 .994384-.803226 1.796307-1.799226 1.796307h-1.381548v75.466308h-3.598452v-75.466308h-151.83109684v75.391462h-3.59845161v-75.391462h-1.38154839c-.996 0-1.7992258-.801923-1.7992258-1.796307v-9.152616c0-.994384.8032258-1.796307 1.7992258-1.796307h1.38154839v-122.1061543-4.2769231h-1.38154839c-.996 0-1.7992258-.8019231-1.7992258-1.7963077v-9.1526154" fill="#ccc"/><path d="m7.13264516 189.788462h151.84180684v-120.3205389h-151.84180684" fill="#e6e6e6"/><path d="m7.13264516 65.886h151.84180684v-2.4913077h-151.84180684z" fill="#b3b3b3"/></g><path d="m5.33341935 200.737385h155.44025765v5.677615h-155.44025765z" fill="#b3b3b3"/><path d="m123.525419 221.844h14.747226v49.494692h-14.747226z" fill="#70dce0"/><path d="m116.735484 277.754077v-21.063846-42.010077c0-.994385 1.049548-1.796308 2.345419-1.796308h26.142323c1.295871 0 2.345419.801923 2.345419 1.796308v42.010077 21.063846z" fill="#1fc9bd" fill-rule="nonzero"/><g transform="translate(123.16129 80.192308)"><path d="m22.608129 42.8761538h-20.02709674c-.996 0-1.79922581-.801923-1.79922581-1.7963076v-14.3383847-24.28223073c0-.99438462.80322581-1.79630769 1.79922581-1.79630769h20.02709674c.996 0 1.7992258.80192307 1.7992258 1.79630769v24.28223073 14.3383847c0 .9836923-.8032258 1.7963076-1.7992258 1.7963076z" fill="#ccc" fill-rule="nonzero"/><path d="m5.71896774 6.41538462h14.74722576v31.45676918h-14.74722576z" fill="#1fc9bd"/><g fill="#62f4e6" fill-rule="nonzero"><path d="m5.71896774 23.8759231h12.95870966v-15.32207695h-12.95870966z"/><path d="m18.6776774 27.4685385h-12.95870966v10.7457692h12.95870966z"/></g></g><g transform="translate(71.754839 80.192308)"><path d="m22.0726452 42.8761538h-20.02709681c-.996 0-1.79922581-.801923-1.79922581-1.7963076v-14.3383847-24.28223073c0-.99438462.80322581-1.79630769 1.79922581-1.79630769h20.02709681c.996 0 1.7992258.80192307 1.7992258 1.79630769v24.28223073 14.3383847c0 .9836923-.8032258 1.7963076-1.7992258 1.7963076z" fill="#ccc" fill-rule="nonzero"/><path d="m5.18348387 6.41538462h14.74722583v31.45676918h-14.74722583z" fill="#1fc9bd"/><g fill="#62f4e6" fill-rule="nonzero"><path d="m5.18348387 23.8759231h12.95870963v-15.32207695h-12.95870963z"/><path d="m18.1421935 27.4685385h-12.95870963v10.7457692h12.95870963z"/></g></g><g transform="translate(19.277419 80.192308)"><path d="m22.608129 42.8761538h-20.02709674c-.996 0-1.79922581-.801923-1.79922581-1.7963076v-14.3383847-24.28223073c0-.99438462.80322581-1.79630769 1.79922581-1.79630769h20.02709674c.996 0 1.7992258.80192307 1.7992258 1.79630769v24.28223073 14.3383847c0 .9836923-.8032258 1.7963076-1.7992258 1.7963076z" fill="#ccc" fill-rule="nonzero"/><path d="m5.71896774 6.41538462h14.74722576v31.45676918h-14.74722576z" fill="#1fc9bd"/><g fill="#62f4e6" fill-rule="nonzero"><path d="m5.71896774 23.8759231h12.95870966v-15.32207695h-12.95870966z"/><path d="m18.6776774 27.4685385h-12.95870966v10.7457692h12.95870966z"/></g></g><g transform="translate(123.16129 133.653846)"><path d="m22.608129 42.8761538h-20.02709674c-.996 0-1.79922581-.801923-1.79922581-1.7963076v-14.3383847-24.28223073c0-.99438462.80322581-1.79630769 1.79922581-1.79630769h20.02709674c.996 0 1.7992258.80192307 1.7992258 1.79630769v24.28223073 14.3383847c0 .9836923-.8032258 1.7963076-1.7992258 1.7963076z" fill="#ccc" fill-rule="nonzero"/><path d="m5.71896774 6.41538462h14.74722576v31.45676918h-14.74722576z" fill="#1fc9bd"/><g fill="#62f4e6" fill-rule="nonzero"><path d="m5.71896774 23.8759231h12.95870966v-15.32207695h-12.95870966z"/><path d="m18.6776774 27.4685385h-12.95870966v10.7457692h12.95870966z"/></g></g><g transform="translate(71.754839 133.653846)"><path d="m22.0726452 42.8761538h-20.02709681c-.996 0-1.79922581-.801923-1.79922581-1.7963076v-14.3383847-24.28223073c0-.99438462.80322581-1.79630769 1.79922581-1.79630769h20.02709681c.996 0 1.7992258.80192307 1.7992258 1.79630769v24.28223073 14.3383847c0 .9836923-.8032258 1.7963076-1.7992258 1.7963076z" fill="#ccc" fill-rule="nonzero"/><path d="m5.18348387 6.41538462h14.74722583v31.45676918h-14.74722583z" fill="#1fc9bd"/><g fill="#62f4e6" fill-rule="nonzero"><path d="m5.18348387 23.8759231h12.95870963v-15.32207695h-12.95870963z"/><path d="m18.1421935 27.4685385h-12.95870963v10.7457692h12.95870963z"/></g></g><g transform="translate(19.277419 133.653846)"><path d="m22.608129 42.8761538h-20.02709674c-.996 0-1.79922581-.801923-1.79922581-1.7963076v-14.3383847-24.28223073c0-.99438462.80322581-1.79630769 1.79922581-1.79630769h20.02709674c.996 0 1.7992258.80192307 1.7992258 1.79630769v24.28223073 14.3383847c0 .9836923-.8032258 1.7963076-1.7992258 1.7963076z" fill="#ccc" fill-rule="nonzero"/><path d="m5.71896774 6.41538462h14.74722576v31.45676918h-14.74722576z" fill="#1fc9bd"/><g fill="#62f4e6" fill-rule="nonzero"><path d="m5.71896774 23.8759231h12.95870966v-15.32207695h-12.95870966z"/><path d="m18.6776774 27.4685385h-12.95870966v10.7457692h12.95870966z"/></g></g><g transform="translate(71.754839 214.915385)"><path d="m22.0726452 42.8761538h-20.02709681c-.996 0-1.79922581-.801923-1.79922581-1.7963076v-14.3383847-24.28223073c0-.99438462.80322581-1.79630769 1.79922581-1.79630769h20.02709681c.996 0 1.7992258.80192307 1.7992258 1.79630769v24.28223073 14.3383847c0 .9836923-.8032258 1.7963076-1.7992258 1.7963076z" fill="#ccc" fill-rule="nonzero"/><path d="m5.18348387 6.41538462h14.74722583v31.45676918h-14.74722583z" fill="#1fc9bd"/><g fill="#62f4e6" fill-rule="nonzero"><path d="m5.18348387 23.8759231h12.95870963v-15.32207695h-12.95870963z"/><path d="m18.1421935 27.4685385h-12.95870963v10.7457692h12.95870963z"/></g></g><g transform="translate(19.277419 214.915385)"><path d="m22.608129 42.8761538h-20.02709674c-.996 0-1.79922581-.801923-1.79922581-1.7963076v-14.3383847-24.28223073c0-.99438462.80322581-1.79630769 1.79922581-1.79630769h20.02709674c.996 0 1.7992258.80192307 1.7992258 1.79630769v24.28223073 14.3383847c0 .9836923-.8032258 1.7963076-1.7992258 1.7963076z" fill="#ccc" fill-rule="nonzero"/><path d="m5.71896774 6.41538462h14.74722576v31.45676918h-14.74722576z" fill="#1fc9bd"/><g fill="#62f4e6" fill-rule="nonzero"><path d="m5.71896774 23.8759231h12.95870966v-15.32207695h-12.95870966z"/><path d="m18.6776774 27.4685385h-12.95870966v10.7457692h12.95870966z"/></g></g><path d="m3.95187097 198.951769h1.38154838 155.44025765 1.381549v-5.570692h-1.381549-155.44025765-1.38154838z" fill="#e6e6e6" fill-rule="nonzero"/><path d="m.36412903 52.4457692c0-.9943846.80322581-1.7963077 1.79922581-1.7963077h1.38154839v-9.1098461-39.74330771c0-.99438461.8032258-1.79630769 1.7992258-1.79630769h13.29070967c.996 0 1.7992258.80192308 1.7992258 1.79630769v1.62523077h125.2710965v-1.62523077c0-.99438461.803226-1.79630769 1.799226-1.79630769h13.29071c.996 0 1.799226.80192308 1.799226 1.79630769v39.75400001 9.1098461h1.381548c.996 0 1.799226.8019231 1.799226 1.7963077" fill="#ef5243" fill-rule="nonzero"/><path d="m142.43871 275.861538v-56.059769c0-.930231-.749678-1.678692-1.68142-1.678692h-16.974838c-.931742 0-1.68142.748461-1.68142 1.678692v56.059769" stroke="#1db2a0" stroke-linecap="round" stroke-linejoin="round" stroke-width="2"/><ellipse cx="136.548387" cy="249.665385" fill="#1db2a0" fill-rule="nonzero" rx="1.606452" ry="1.603846"/></g><path d="m348 299h-143s13.365689-5.586683 18.621859-13.755991 9.622009-17.646138 21.046133-13.453424 14.492011-17.581302 26.184307-17.786615c11.692296-.216119 11.434851 8.461069 21.453755 9.131039 10.018903.680775 15.403795 6.894204 17.978246 15.020288 2.563723 8.126084 8.99985 6.526802 13.998575 7.088712 4.998724.56191 8.828219 5.078803 12.185732 7.73707 4.902183 3.846922 11.531393 6.018921 11.531393 6.018921z" fill="url(#a)" fill-rule="nonzero"/><path d="m348 299h-143s13.365689-5.586683 18.621859-13.755991 9.622009-17.646138 21.046133-13.453424 14.492011-17.581302 26.184307-17.786615c11.692296-.216119 11.434851 8.461069 21.453755 9.131039 10.018903.680775 15.403795 6.894204 17.978246 15.020288 2.563723 8.126084 8.99985 6.526802 13.998575 7.088712 4.998724.56191 8.828219 5.078803 12.185732 7.73707 4.902183 3.846922 11.531393 6.018921 11.531393 6.018921z" fill="url(#a)" fill-rule="nonzero"/><g transform="translate(259 165)"><path d="m52.8367164 4.81576271c4.6308955 2.42389831 8.4246269 7.50661019 7.1847761 13.61440679-1.2398507 6.1077966 4.1328359 12.7067797 1.3246269 18.6971186-2.808209 5.9796611-6.4641791 9.0015255-9.1240298 12.3437288-2.6598508 3.3422034-7.1741792 9.5033899-12.4832836 10.2935594-5.3091045.7901695-10.9679105-2.4879661-14.2953732-2.2316949-3.3274627.2562711-10.6076119.4164406-13.6913432-4.5808475-3.08373139-4.9972881-4.87462691-7.1222034-7.068209-10.7633898-2.19358209-3.6411865-6.49597015-8.5957627-2.96716418-14.0842373s2.73402985-8.4783051 5.53164179-13.0911865c2.80820899-4.6128813 4.87462689-9.12966098 11.17985079-9.59949149 6.2946268-.48050847 6.3582089-3.06457627 11.7308955-4.49542372 5.3726865-1.43084746 10.1625373 1.45220338 12.7058209 2.49864406s7.7888059.25627119 9.971791 1.39881356z" fill="url(#c)" fill-rule="nonzero"/><path d="m69.1455224 80.4798305c1.7379104-2.2637288 2.5220895-5.680678.6676119-8.4676271-1.8544776-2.7869492-.6252239-7.3144068-3.2214925-9.6849153-2.5962687-2.3598305-4.980597-3.0538983-6.9622388-4.1216949s-5.4256717-3.139322-8.1597015-2.3277966c-2.7340299.8115254-4.7792537 3.7372881-6.4429851 4.3672881-1.6637313.63-5.2137313 2.1996611-5.669403 5.4030509-.4556716 3.2033898-.8901492 4.6876271-1.1974627 7.0047458-.3073134 2.3171186-1.3564179 5.7874576 1.4729851 7.7415254s3.0731343 3.6305085 5.3726866 5.3069491c2.3101492 1.6764407 4.238806 3.470339 7.3861194 2.2744068s3.6983582.0961017 6.5913433-.4164407c2.892985-.5125423 4.6097015-3.0325423 5.6270149-4.1430508 1.0173134-1.0784746 3.7089552-1.8686441 4.5355224-2.9364407z" fill="url(#d)" fill-rule="nonzero"/><g stroke="#8c6239" stroke-linecap="round" stroke-linejoin="round" stroke-width="2"><path d="m32.1089552 28.8732203v96.4540677"/><path d="m56.7470149 66.2674576-24.6380597 34.7888134"/></g></g><path d="m348 299h-143s13.365689-5.586683 18.621859-13.755991 9.622009-17.646138 21.046133-13.453424 14.492011-17.581302 26.184307-17.786615c11.692296-.216119 11.434851 8.461069 21.453755 9.131039 10.018903.680775 15.403795 6.894204 17.978246 15.020288 2.563723 8.126084 8.99985 6.526802 13.998575 7.088712 4.998724.56191 8.828219 5.078803 12.185732 7.73707 4.902183 3.846922 11.531393 6.018921 11.531393 6.018921z" fill="url(#f)" fill-rule="nonzero"/><path d="m174 307h-143s13.365689-5.586683 18.6218588-13.755991c5.2561699-8.169308 9.6220089-17.646138 21.0461331-13.453424s14.4920111-17.581302 26.1843073-17.786615c11.6922958-.216119 11.4348508 8.461069 21.4537548 9.131039 10.018903.680775 15.403795 6.894204 17.978246 15.020288 2.563723 8.126084 8.99985 6.526802 13.998575 7.088712 4.998724.56191 8.828219 5.078803 12.185732 7.73707 4.891456 3.857728 11.531393 6.018921 11.531393 6.018921z" fill="url(#g)" fill-rule="nonzero"/><g transform="translate(26 208)"><path d="m15.3586957 2.11627907c3.3152173-1.79883721 7.8913043-2.06337209 11.0652173 1.02639535 3.1739131 3.08976744 9.3043479 2.48662791 11.7717392 6.45465116 2.4673913 3.97860462 2.8260869 7.30116282 3.7717391 10.15813952.9456522 2.8675582 2.8369565 7.9043023 1.1847826 11.3432558s-5.8913043 5.5023256-7.0652174 7.5656977c-1.173913 2.0633721-4 6.422907-8.2391304 6.3065116-4.2391304-.1163953-6.2391304.1163954-9.3043478 0-3.0652174-.1163953-7.7717392.4973256-9.65217395-3.7034883-1.88043478-4.200814-4-4.8886047-5.65217392-8.3275582-1.65217391-3.4389535-3.53260869-6.4123256-1.29347826-10.3168604 2.23913044-3.9045349.70652174-4.9309303 2-8.6555814 1.29347826-3.7246512 4.94565218-5.42825585 6.59782613-6.52872097 1.6304347-1.07930233 3.25-4.47593023 4.8152174-5.32244186z" fill="url(#h)" fill-rule="nonzero"/><path d="m32.8478261 61.9223256c1.7282609 1.1110465 4.2173913 1.4813953 6.1195652.0211628 1.9021739-1.4602326 5.2282609-.8253489 6.7826087-2.782907s1.923913-3.6717442 2.5869565-5.1213954c.6630435-1.4496511 1.9565218-3.989186 1.2282609-5.8726744-.7282609-1.8834883-2.9456522-3.1744186-3.4891304-4.3172093-.5434783-1.1427907-1.8695653-3.5553488-4.1956522-3.7140697-2.326087-.158721-3.4130435-.3809303-5.0978261-.4761628-1.6847826-.0952326-4.2391304-.6560465-5.4782609 1.4496511-1.25 2.1056977-2.4456521 2.3596512-3.5217391 4.0738372-1.076087 1.7141861-2.2608696 3.1744186-1.2391304 5.3224419 1.0326087 2.1480233.1413043 2.6136047.6521739 4.6240698.5217391 2.0104651 2.4347826 3.0897674 3.2826087 3.7458139.8369565.6772093 1.5543478 2.5289535 2.3695652 3.0474419z" fill="url(#i)" fill-rule="nonzero"/><g stroke="#8c6239" stroke-linecap="round" stroke-linejoin="round" stroke-width="2"><path d="m21.2391304 22.6336047v67.6997674"/><path d="m39.1413043 48.8754651-17.9021739 24.4218605"/></g></g><g transform="translate(21 77)"><path d="m.882979.434478h96.287234v68.488508h-96.287234z" fill="#000" fill-rule="nonzero" opacity=".2"/><path d="m3.117021 2.511493h96.287234v68.488508h-96.287234z" fill="#fff" fill-rule="nonzero" stroke="#1fc9bd"/><path d="m4.58510638 10.8407463h93.36170212" stroke="#38a2c2" stroke-width=".664"/><g stroke="#38a2c2" stroke-width=".664" transform="translate(6.382979 5.298507)"><path d="m.71276596 1.39880597h3.32978723"/><path d="m8.27659574 1.39880597h3.32978726"/><path d="m15.8404255 1.39880597h3.3404256"/></g><g transform="translate(14.893617 14.835821)"><g fill="#1fc9bd" fill-rule="nonzero"><path d="m11.6914894 6.66552239c0 3.20029851-2.60638302 5.79656721-5.81914897 5.79656721-3.21276596 0-5.81914894-2.5962687-5.81914894-5.79656721s2.60638298-5.79656717 5.81914894-5.79656717c3.21276595.01059702 5.81914897 2.59626866 5.81914897 5.79656717z"/><path d="m11.6914894 25.1467164c0 3.2002985-2.60638302 5.7965672-5.81914897 5.7965672-3.21276596 0-5.81914894-2.5962687-5.81914894-5.7965672s2.60638298-5.7965671 5.81914894-5.7965671c3.21276595 0 5.81914897 2.5962686 5.81914897 5.7965671z"/><path d="m11.6914894 43.6279104c0 3.2002986-2.60638302 5.7965672-5.81914897 5.7965672-3.21276596 0-5.81914894-2.5962686-5.81914894-5.7965672 0-3.2002985 2.60638298-5.7965671 5.81914894-5.7965671 3.21276595 0 5.81914897 2.5962686 5.81914897 5.7965671z"/></g><g stroke="#636363" stroke-width=".5055" transform="translate(20.212766 4.238806)"><path d="m.87234043.55104478h38.75531917"/><path d="m.87234043 3.67716418h26.74468087"/></g><g stroke="#636363" stroke-width=".5055" transform="translate(20.212766 22.253731)"><path d="m.87234043 1.33522388h32.31914897"/><path d="m.87234043 4.45074627h47.32978727"/></g><g stroke="#636363" stroke-width=".5055" transform="translate(20.212766 41.328358)"><path d="m.87234043.73119403h38.75531917"/><path d="m.87234043 3.85731343h11.97872337"/></g></g></g><g fill-rule="nonzero"><g transform="translate(222 255)"><path d="m102.842062 71.0754057c.332371-.1395319.032165-.5366612-.289485-.5688608-.042886 0-.139381 0-.268041.0107332.589691-.1287987 1.061443-.2361309 1.16866-.2790638.321649-.1287987.075051-.5151948-.225155-.5795941.235877-.0536661.407423-.1073322.482474-.1395319.407423-.1609984.107217-.5581276-.278762-.5795941-.085774 0-.32165.0214665-.611134.0751326.150103-.0429329.268041-.0751326.321649-.096599.332371-.1395319.12866-.5151947-.19299-.5473944-.107216-.0107332-.278763.0214664-.707629.0751326-.364536.0536661-.771958.0643993-1.136494.1180654-.332371.0536661-1.9406189.1073322-2.3158766-.6010605-.5682475-1.0733223 1.6296906-.9230572 1.8441236-1.8568477.06433-.289797-1.5546391-.1180654-2.4338144.1073323-.8791752.2253977-1.3187629.3541963-1.8119587.579594-.4931959.2146645-1.1472165.7083928-1.468866.7620589s-1.254433-.0536661-1.254433-.0536661l-.3002062 2.9623697s1.8012371.0751325 2.2729897.3219967c1.1257732.6332601 2.2837113 1.008923 3.5917526.9874565.825567-.0107332 1.640412-.1717316 2.433814-.3434631.010722.0214664 1.072165-.3112635 1.179382-.3541964z" fill="#ffe1bd"/><g transform="translate(53.608247 129.872004)"><path d="m2.93773196 4.18595715s1.80123711 2.53304073 2.62680412 3.2950996c.82556701.76205886 3.49525773-1.60998352 3.39876289-2.31837627-.09649485-.70839275-3.45237113-4.62601931-3.45237113-4.62601931" fill="#ed9c80"/><path d="m10.3249485 5.23781304c.793402.85865788 2.1550515 2.58670686 2.1550515 2.58670686l-2.2301031 2.8657707-.73979381-.2039313s-.23587629 1.2879868-.9113402 2.2003108c-.50391753.6761931-1.72618557 1.8461145-2.41237114 2.3183763-2.42309278 1.6421832-4.58886598 2.1466447-4.94268041 1.8675809-1.46886598-1.1806546 1.72618557-3.3916986 2.30515464-3.939093 1.66185567-1.5455842 1.82268041-3.81029437 1.42597938-5.01241539-.28948454-.88012433-.55752577-.912324-.10721649-1.12698846 0 0 .37525773-.2253977.9327835-.03219968.85773196.28979704 1.82268041.11806546 2.36948454-.61179373.31092783-.41859572.55752577-.90159077.55752577-1.43825194.01072165-.01073323.80412371-.32199671 1.59752582.52592794z" fill="#3a3a3a"/></g><g transform="translate(0 135.238615)"><path d="m11.6865979 1.18065458s-.8148453 3.00530257-.8791752 4.12155781c-.0643299 1.12698846 3.4630928 1.68511608 3.945567 1.15918813.4931959-.52592795 1.3723711-5.60274264 1.3723711-5.60274264" fill="#ed9c80"/><path d="m15.5571134 7.56692253c-.1501031 1.15918814-.6325773 3.30583287-.6325773 3.30583287l-3.6346392.096599-.3109278-.7083928s-1.14721652.6332602-2.27298972.6869263c-.83628866.0429329-2.51958763-.1609983-3.32371134-.3971292-2.79835051-.82645825-4.56751474-2.18957763-4.56751474-2.64037302-.02135124-1.88904732 3.70978278-.8264582 4.50318484-.71912597 2.2515464.30053026 4.09567011-1.008923 4.78185566-2.08224535.4931959-.78352531.3538144-1.008923.8041237-.79425853 0 0 .4074227.15026513.6218557.69765952.3216495.84792465 1.0721649 1.48118484 1.9727835 1.44898517.5146392-.02146645 1.0507217-.15026513 1.468866-.48299506 0 .01073323.7397938.42932894.5896907 1.58851707z" fill="#3a3a3a"/></g><path d="m27.7047423 72.4170586s-10.2391753 26.1246659-11.5043299 31.7381414c-1.2651547 5.613476-6.0684536 33.89552-6.0684536 33.89552s4.4923711 1.277254 6.1435051.708393c1.1257732-4.647486 12.7158763-40.5393852 20.2853608-50.1778199 7.5587629-9.6384346-8.8560824-16.1642345-8.8560824-16.1642345z" fill="#164060"/><path d="m34.8989691 86.8317777s-2.3051547 12.6759369 5.4894845 25.5665383c7.7946392 12.890601 15.814433 22.529036 15.814433 22.529036s3.3665979-1.652916 4.6317526-3.466831c-2.3802062-3.252167-13.0268041-21.691845-13.0160825-28.904571 0-7.2019929 2.7769072-24.3000178 2.7769072-24.3000178l-11.8474227-2.833571z" fill="#164060"/><path d="m93.4820619 70.463612s-13.4985567.6439934-20.4247423-1.2987201c-6.9261856-1.9319802-18.7843299-10.4219599-18.7843299-10.4219599l-13.9810309-10.7117571c-3.581031-4.4864874-8.1162887-17.2053571-8.8346392-19.5130002-.7076289-2.3183763-3.2593815-18.1606141-3.2593815-18.1606141l2.969897-.289797s3.4416494 11.2269517 5.1892783 17.5702868c1.651134 5.9462058 10.7645361 14.0712559 12.9731959 16.1105684 0 0 0 0-.0107217.0107332.1608248.1287987.2787629.2468642.3645361.3112635 1.3830928 1.1699213.2787629 3.4238983.2787629 3.4238983l2.3802062.8908575s2.5624742-1.3201865 4.1707216.1073323c.1501031.1287986.3216495.3112634.5253609.5366611 2.1872165 2.3720424 7.5265979 10.8298225 18.3661855 15.1338451 7.891134 1.9319802 16.5863918 3.3594989 18.72 3.3916986-.4717526 2.0500457-.6432989 2.9087036-.6432989 2.9087036z" fill="#ed9c80"/><path d="m57.0284536 49.0293647c-.4395876.7835253-3.2915464 2.7262388-5.8004124 1.728049-4.8890721-2.2325105-2.1014433-6.7082647-1.9084536-6.9873285.1608248.1287987.2787629.2468642.3645361.3112635 1.3830928 1.1699214 2.3909278-1.6529164 2.3909278-1.6529164l4.9319588 2.7262388s-2.1014433 1.9319802-.5039175 3.3487657c.1501031.1180654.3216495.3005302.5253608.5259279z" fill="#ed9c80"/><path d="m57.5323711 64.3778743s-4.3637113 10.0999632-6.0577319 16.9799595c-12.1476289 2.9409032-20.1030928-2.7047723-23.737732-6.3004022-1.5331959-1.4919181-2.2837113-2.6189065-2.2837113-2.6189065s3.2808247-5.9354726 5.2321649-10.3575607c1.9620619-4.422088 4.9426804-10.1750958 7.1191753-14.0819891.1179381-.622527-1.8762887-3.6600292-3.8812371-8.0177179 2.7447422-1.1162553 7.1084536-5.5598098 7.1084536-5.5598098l8.287835 9.3486376s-2.508866 4.1108246.7183505 6.289669c3.2272165 2.1895776 5.3393815.2790638 6.9905155-1.0196562 1.3080412 1.7924483 8.2449485 8.0284511 12.48 10.9478879l-5.4573196 9.1554396c0-.0107332-4.8032989-2.7691717-6.5187629-4.7655512z" fill="#1fc9bd"/><g transform="translate(50.273716 25.759736)"><path d="m5.06071692 3.99275912c-.70762887-.12879868-1.47958763.13953191-1.96206186.67619308-.48247422.53666117-.66474226 1.33091971-.46103092 2.02857923-.53608248-.31126348-1.26515464.06439934-1.53319588.63326019-.26804124.55812762-.18226804 1.22358747-.0643299 1.83538121.13938145.69765952.36453609 1.45971837.96494846 1.84611447.42886598.2790638.98639175.3219967 1.49030928.2253977.36453608-.0643994.71835051-.2039313 1.0185567-.4185958.34309278-.2468641.60041237-.5903273.84701031-.92305718.8898969-1.18065458 1.76907216-2.36130916 2.65896907-3.53123051.18226804-.23613092.37525773-.52592795.31092783-.81572499" fill="#2c1e56"/><path d="m11.665253 17.5488203c-.6969072.6976596-1.4474227 1.341653-2.24082474 1.9319803-1.17938144.8801243-2.41237113 1.0733223-3.73113402.386396-1.47958763-.7620589-3.0985567-1.5241177-4.38515464-2.6511062-1.43670103-1.2450539-1.62969072-2.404242-.85773196-4.132291.48247423-1.0733224.94350516-2.1573779 1.44742268-3.21996705 1.0614433-2.25397692 2.2301031-4.46502095 3.59175258-6.55799953.32164948-.48299505.69690722-1.20212102 1.38309278-.90159077 2.1872165.93379044 4.28865982 2.07151213 6.27216492 3.40243184 1.3938145.93379044 2.8090722 2.05004568 3.3880413 3.62782952.5896907 1.58851709.2251546 3.35949899-.1286598 5.01241539-.0536083.2683306-.1822681.5903273-.4503093.6117937" fill="#ed9c80"/><path d="m11.45082 14.0068566c.4181443-.4078625 1.1901031.0214665 1.2973196.6010605.1179381.5688609-.1929897 1.1377217-.4824742 1.6421832-.3645361.622527-1.0507217 1.0625891-1.7047423 1.3738526-.65402061.3219967-1.31876288.3112635-1.49030927-.386396-.60041237.8693911-.33237114 2.0500456.26804123 2.4793746.60041238.4293289 1.49030924.386396 2.04783504-.096599 2.08 2.6940391 5.3822681-.6869263 6.7760825-2.543774 1.0936082-1.4489852 1.7476289-3.6385627 1.7261856-5.4524775-.0107217-.9874566-.3323712-2.00711279-1.0292784-2.70477231.5360825-1.0518559.3430928-2.35057594-.2037113-3.39169861-.5575258-1.04112268-1.1901031-1.74951542-2.0478351-2.56524041-.5253608-.5044615-2.4445361-1.08405557-3.1414433-.66545985-.7290721-1.38458583-2.1550515-1.38458583-3.1307216-1.84611443-.97567014-.46152861-2.51958766-.25759737-2.64824746.81572498-1.15793814-1.33091971-3.73113402-.67619308-4.20288659 1.03038945-.47175258 1.70658253 1.25443299 3.56343018 3.00206185 3.31656605-.17154639 1.20212102.56824742 2.39350883 1.58680413 3.04823546 1.0185567.6439934 2.27298967.8264582 3.48453607.80499175-.6218557.34346315-1.1686598 1.01965622-1.2758763 1.80318152-.1072165.7942586-.1608247 1.3953191.8684536 1.7817151 0 0-.9756701 1.3738526-.5682474 1.438252.4074227.0643993.8684536-.4829951.8684536-.4829951z" fill="#2c1e56"/></g><path d="m26.3859794 1.65291641c.0857732-.35419637.5253608-.10733223.6004124.20393125.0107216.04293289.0214433.1395319.0321649.26833058.0428866-.60106051.0857732-1.08405557.1179381-1.20212102.0857732-.33272993.4931959-.15026513.6004124.1395319.0214433-.23613091.0428866-.41859571.0643299-.49372828.1072165-.42932893.5468041-.1824648.611134.19319803.0107217.08586578.0214433.3219967.0214433.62252696.0107217-.16099836.032165-.27906381.0428866-.33272993.0857732-.35419638.4931959-.20393125.5682475.10733223.0214433.10733224.0214433.27906381.0214433.71912597 0 .3649296.0536082.77279209.0428866 1.13772169 0 .33272993.1715463 1.94271344.9220618 2.21104403 1.1472165.41859572.6754639-1.74951542 1.5760825-2.09297857.2787629-.10733224.3430928 1.52411773.2358763 2.4257085s-.1608248 1.35238615-.3216495 1.8783141c-.1501031.52592795-.5360825 1.2343207-.5468041 1.5563174 0 .33272993.2358762 1.23432065.2358762 1.23432065l-2.8841237.719126s-.3323711-1.77098185-.6325773-2.21104401c-.7826804-1.03038945-1.3294845-2.11444502-1.4903093-3.41316506-.0964948-.81572498-.0643299-1.64218319-.0107216-2.46864139 0 .01073322.1608247-1.08405557.1929897-1.20212103z" fill="#ed9c80"/><path d="m51.4746392 81.3471005c-12.1476289 2.9409033-20.1030928-2.7047723-23.737732-6.3004021 12.6622681 9.702834 21.0787629 5.2700127 22.4189691 4.9909489.3752577-2.9838361 6.1863917-16.904827 6.1863917-16.904827s.9327835 1.1377217 1.1901031 1.2343207c0 .0107333-4.3637113 10.0999633-6.0577319 16.9799595z" fill="#169b8e"/></g><g transform="translate(220 285)"><path d="m138.391054 145.47971c.010678 1.061739-14.219562 2.016232-31.772327 2.134203-17.5527655.117971-31.7830049-.643478-31.7936943-1.694493-.0106774-1.061739 14.2195621-2.016232 31.7723273-2.134203 17.552765-.117971 31.793694.643479 31.793694 1.694493z" fill="#b0affd" opacity=".4"/><path d="m63.6075136 116.523188c.0106773 1.06174-14.2195621 2.016232-31.7723275 2.134203-17.5527653.117971-31.78300478-.643478-31.79369415-1.694492-.01067735-1.06174 14.21956215-2.016232 31.77232745-2.134203 17.5527654-.117971 31.7936942.643478 31.7936942 1.694492z" fill="#b0affd" opacity=".4"/><g transform="translate(75.968159)"><path d="m16.9651804 132.59942s-.1923006 3.002899.2029839 5.297971c.5341681 1.555073.3098175 2.08058.3098175 2.08058l-6.1429337.396812s2.4785402-1.726667 1.3461037-7.979131c-1.1324364-6.241739 4.2840286.203768 4.2840286.203768z" fill="#ed9c80"/><path d="m17.3177314 138.369275s-2.4892236 1.383479-5.2027978 1.04029c-2.85245791 1.887536-4.91434696 2.766957-7.64928788 3.549855-2.73494092.772174-1.89095525 3.002899 2.82040782 1.962609 4.71136306-1.04029 8.06593906-1.329855 9.13427536-1.383478s2.7883577-.171594 2.7456243-.922319c-.0427335-.761449-1.0256029-4.622319-1.8482218-4.246957z" fill="#2c1e56"/><g transform="translate(39.528443 126.550725)"><path d="m8.67489072 1.52289855s1.10038639 2.7884058 2.44649008 4.70811594c1.1538032 1.17971015 1.1644866 1.73739131 1.1644866 1.73739131l-5.37373156 3.0028985s1.50635417-2.62753618-2.19008941-7.78608691c-3.68576022-5.14782609 3.95284429-1.66231884 3.95284429-1.66231884z" fill="#ed9c80"/><path d="m11.4632485 6.59565217s-1.6559213 2.31652174-4.2519785 3.17449276c-1.77343825 2.92782607-3.2584257 4.62231887-5.3950983 6.49913047-2.13667259 1.8768116-.42733452 3.5284058 3.38662606.5576811 3.81396058-2.9707246 6.71983534-4.6652174 7.67065464-5.18s2.4464901-1.3513043 2.0832557-2.01623186c-.3739177-.66492754-2.916558-3.73217392-3.4934596-3.03507247z" fill="#2c1e56"/></g><path d="m7.53177089 12.7301449s1.77343825-3.20666664 2.59605721-4.52579707c.8226189-1.32985508 4.4229123 1.94115937 4.4229123 1.94115937s.3311842 1.4263769-1.410204 2.3594203c-1.7413881.9330435-2.7883577.9115942-3.15159203 2.102029-.36323434 1.1904348-2.48922357-.4504348-2.48922357-.4504348z" fill="#ed9c80"/><path d="m32.0607722 13.5023188s-1.6238711-3.4962318-2.3930733-4.85826083c-.7692021-1.36202898-4.4976958 1.73739133-4.4976958 1.73739133s-.3952844 1.4049275 1.3033703 2.4237681c1.6986547 1.0081159 2.7456243 1.0402898 3.0554418 2.2414493.3098176 1.2011594 2.499907-.3431884 2.499907-.3431884z" fill="#ed9c80"/><g transform="translate(10.683363 6.317158)"><path d="m20.2663395 1.84429173-.0534168 2.42376811c-.0213667.83652174-4.4976958 1.41565217-9.9996277 1.29768116-5.50193193-.12869565-9.94621093-.90086956-9.93554678-1.7373913l.05343603-2.42376812z" fill="#fd9f00"/><g fill="#e38601" transform="translate(0 .117625)"><path d="m16.9595485 3.52348164 5.5443549-.00047787-.0000001.00066007-5.5443549.00047787z" transform="matrix(.0224011 -.99974906 .99974906 .0224011 15.767025 23.171416)"/><path d="m15.7428951 3.50515323 5.5443548-.00047787v.00066007l-5.5443549.00047788z" transform="matrix(.0224011 -.99974906 .99974906 .0224011 14.59595 21.937149)"/><path d="m14.3417378 3.46494764 5.5443549-.00047787-.0000001.00066007-5.5443548.00047787z" transform="matrix(.0224011 -.99974906 .99974906 .0224011 13.266375 20.497039)"/><path d="m12.6722274 3.35437904 5.5448846-.00047361v.00066064l-5.5448847.00047361z" transform="matrix(.02219897 -.99975357 .99975357 .02219897 11.748168 18.720871)"/><path d="m10.6807513 3.3912726 5.5443548-.00047788v.00066007l-5.5443549.00047788z" transform="matrix(.0224011 -.99974906 .99974906 .0224011 9.761056 16.764947)"/><path d="m8.59486203 3.33700057 5.54435487-.00047788-.0000001.00066008-5.54435483.00047787z" transform="matrix(.0224011 -.99974906 .99974906 .0224011 7.77615 14.626524)"/><path d="m-2.0144291 3.01497641 5.5448969-.00047574-.00000006.00066065-5.54489689.00047575z" transform="matrix(.02229892 -.99975135 .99975135 .02229892 -2.273203 3.705667)"/><path d="m-.83324318 3.12443289 5.54435487-.00047788-.00000006.00066007-5.54435486.00047788z" transform="matrix(.0224011 -.99974906 .99974906 .0224011 -1.22824 4.992979)"/><path d="m.55734394 3.15075222 5.54435487-.00047787-.00000006.00066007-5.54435486.00047787z" transform="matrix(.0224011 -.99974906 .99974906 .0224011 .104884 6.408946)"/><path d="m2.30610363 3.19610135 5.54435486-.00047787-.00000006.00066007-5.54435486.00047787z" transform="matrix(.0224011 -.99974906 .99974906 .0224011 1.769132 8.2016)"/><path d="m4.21811364 3.23507039 5.54435487-.00047787-.00000006.00066007-5.54435486.00047788z" transform="matrix(.0224011 -.99974906 .99974906 .0224011 3.599352 10.151227)"/><path d="m6.38268375 3.21435388 5.54488465-.00047361-.0000001.00066064-5.5448846.00047361z" transform="matrix(.02219897 -.99975357 .99975357 .02219897 5.738237 12.295959)"/></g><path d="m.33110753 1.36168303c-.02129.83652174 4.42298899 1.61942029 9.93560427 1.7373913 5.5019319.12869566 9.978261-.46115942 9.9997045-1.29768116.02129-.83652173-4.422989-1.61942028-9.9356043-1.7373913-5.50193194-.12869565-9.97826102.45043478-9.99970447 1.29768116z" fill="#fac61b"/><path d="m2.38236587 1.24371201c-.01065929.38608696 3.53621721.78289856 7.90571263.87942029 4.3801788.09652174 7.9270553-.13942029 7.9377628-.52550724.0106593-.38608696-3.5362172-.78289855-7.9057127-.87942029-4.38017879-.09652174-7.9270553.13942029-7.93776273.52550724z" fill="#fd9f00"/><path d="m17.8839496 1.79066854c-.9828694-.3110145-3.9955778-.58985508-7.5745043-.66492754-3.57892663-.07507246-6.60231835.06434783-7.59587111.33246377-.22435062-.07507247-.34186761-.13942029-.34186761-.21449276.01068336-.38608695 3.55755986-.62202898 7.93773872-.52550724 4.3801788.09652174 7.9163719.49333333 7.9056885.87942029.0106834.07507246-.1175169.13942029-.3311842.19304348z" fill="#e38601"/></g><g transform="translate(8.54669 3.217391)"><path d="m20.5334236 2.15565217-.0534168 2.42376812c-.0213667.83652174-4.4976958 1.41565217-9.9996277 1.29768116-5.50193196-.12869565-9.94621095-.90086957-9.93554681-1.73739131l.05343604-2.42376811z" fill="#fd9f00"/><g fill="#e38601"><path d="m17.2386054 3.94615463 5.5443549-.00047788-.0000001.00066007-5.5443548.00047788z" transform="matrix(.0224011 -.99974906 .99974906 .0224011 15.617264 23.863607)"/><path d="m16.0795001 3.85902686 5.5448847-.00047361-.0000001.00066064-5.5448846.00047361z" transform="matrix(.02219897 -.99975357 .99975357 .02219897 14.575279 22.620748)"/><path d="m14.6888703 3.8330668 5.5448846-.00047361v.00066064l-5.5448847.00047361z" transform="matrix(.02219897 -.99975357 .99975357 .02219897 13.241474 21.205078)"/><path d="m12.8716045 3.84948274 5.5443549-.00047787-.0000001.00066007-5.5443548.00047787z" transform="matrix(.0224011 -.99974906 .99974906 .0224011 11.444736 19.403196)"/><path d="m11.0378224 3.74935028 5.5448847-.00047361-.0000001.00066064-5.5448846.00047361z" transform="matrix(.02219897 -.99975357 .99975357 .02219897 9.755171 17.473072)"/><path d="m8.94088766 3.70293405 5.54488464-.00047361v.00066064l-5.54488469.00047361z" transform="matrix(.02219897 -.99975357 .99975357 .02219897 7.751191 15.331268)"/><path d="m-1.73621296 3.43800868 5.5448969-.00047575-.00000006.00066066-5.54489689.00047574z" transform="matrix(.02229892 -.99975135 .99975135 .02229892 -2.424118 4.397412)"/><path d="m-.56478843 3.54753164 5.54435487-.00047787-.00000006.00066007-5.54435486.00047787z" transform="matrix(.0224011 -.99974906 .99974906 .0224011 -1.388792 5.674987)"/><path d="m.90260785 3.52117504 5.54488465-.00047361-.00000005.00066064-5.54488465.00047361z" transform="matrix(.02219897 -.99975357 .99975357 .02219897 .073066 7.117245)"/><path d="m2.57436714 3.61880008 5.54435487-.00047788-.00000006.00066007-5.54435486.00047788z" transform="matrix(.0224011 -.99974906 .99974906 .0224011 1.608794 8.883027)"/><path d="m4.48667523 3.6580619 5.54435487-.00047787-.0000001.00066007-5.54435483.00047787z" transform="matrix(.0224011 -.99974906 .99974906 .0224011 3.439012 10.833238)"/><path d="m6.57256445 3.7117977 5.54435485-.00047788v.00066008l-5.5443549.00047787z" transform="matrix(.0224011 -.99974906 .99974906 .0224011 5.424452 12.971136)"/></g><path d="m.60887497 1.66231884c-.02129001.83652174 4.42298898 1.61942029 9.93560423 1.7373913 5.501932.12869566 9.978261-.46115942 9.9997045-1.29768115.02129-.83652174-4.422989-1.61942029-9.9356043-1.73739131-5.5019319-.11797101-9.97826098.46115942-9.99970443 1.29768116z" fill="#fac61b"/><path d="m2.66013331 1.54434783c-.0106593.38608695 3.53621721.78289855 7.90571269.87942029 4.3801788.09652174 7.9270553-.13942029 7.9377627-.52550725.0106593-.38608696-3.5362172-.78289855-7.9057126-.87942029-4.36949549-.09652174-7.93776279.13942029-7.93776279.52550725z" fill="#fd9f00"/><path d="m18.1510337 2.10202899c-.9828694-.3110145-3.9955778-.58985508-7.5745044-.66492754-3.57892656-.07507246-6.60231828.06434783-7.59587103.33246377-.22435063-.07507247-.34186762-.13942029-.34186762-.21449276.01068336-.38608695 3.55755987-.62202898 7.93773865-.52550724 4.3801788.09652174 7.916372.49333333 7.9056886.87942029.0106834.06434782-.1068336.12869565-.3311842.19304348z" fill="#e38601"/></g><g transform="translate(10.683363)"><path d="m20.191556 2.65971014-.0534168 2.42376812c-.0213667.83652174-4.4976958 1.41565217-9.9996277 1.29768116-5.50193197-.12869565-9.94621097-.90086956-9.93554682-1.7373913l.05343603-2.42376812z" fill="#fd9f00"/><g fill="#e38601" transform="translate(0 1.072464)"><path d="m16.884203 3.38432196 5.5443549-.00047787-.0000001.00066007-5.5443549.00047787z" transform="matrix(.0224011 -.99974906 .99974906 .0224011 15.832492 22.960046)"/><path d="m15.6566269 3.35923381 5.5443549-.00047787-.0000001.00066007-5.5443548.00047788z" transform="matrix(.0224011 -.99974906 .99974906 .0224011 14.657496 21.708252)"/><path d="m14.2667096 3.31551805 5.5443549-.00047788-.0000001.00066007-5.5443548.00047788z" transform="matrix(.0224011 -.99974906 .99974906 .0224011 13.34242 20.275947)"/><path d="m12.5959204 3.2150424 5.5448846-.00047361v.00066064l-5.5448847.00047361z" transform="matrix(.02219897 -.99975357 .99975357 .02219897 11.812857 18.508339)"/><path d="m10.6161116 3.24184622 5.5443548-.00047787v.00066007l-5.5443549.00047787z" transform="matrix(.0224011 -.99974906 .99974906 .0224011 9.847253 16.554243)"/><path d="m8.51994067 3.18767822 5.54435483-.00047787v.00066007l-5.54435488.00047787z" transform="matrix(.0224011 -.99974906 .99974906 .0224011 7.852193 14.405644)"/><path d="m-2.08038284 2.87618566 5.5448969-.00047574-.00000006.00066065-5.54489689.00047574z" transform="matrix(.02229892 -.99975135 .99975135 .02229892 -2.198929 3.504034)"/><path d="m-.90845619 2.97508802 5.54435487-.00047788-.00000006.00066007-5.54435487.00047788z" transform="matrix(.0224011 -.99974906 .99974906 .0224011 -1.152461 4.771785)"/><path d="m.48207645 3.0119368 5.54435486-.00047787-.00000006.00066007-5.54435486.00047787z" transform="matrix(.0224011 -.99974906 .99974906 .0224011 .170083 6.197993)"/><path d="m2.29751532 2.98243573 5.54488466-.00047361-.00000006.00066064-5.54488465.00047361z" transform="matrix(.02219897 -.99975357 .99975357 .02219897 1.975616 7.985029)"/><path d="m4.14284615 3.09646947 5.54435486-.00047788-.00000006.00066007-5.54435486.00047788z" transform="matrix(.0224011 -.99974906 .99974906 .0224011 3.664336 9.940483)"/><path d="m6.23955441 3.1396726 5.54435489-.00047788-.0000001.00066007-5.54435484.00047788z" transform="matrix(.0224011 -.99974906 .99974906 .0224011 5.670883 12.0789)"/></g><path d="m.25632399 2.16637681c-.02129.83652174 4.42298899 1.61942029 9.93560431 1.73739131 5.5019319.12869565 9.978261-.46115942 9.9997044-1.29768116.02129-.83652174-4.422989-1.61942029-9.9356043-1.73739131-5.50193188-.11797101-9.97826096.46115942-9.99970441 1.29768116z" fill="#fac61b"/><path d="m2.30758233 2.0484058c-.01065929.38608695 3.53621721.78289855 7.90571267.87942029 4.3694954.09652174 7.9270553-.13942029 7.9377627-.52550725.0106593-.38608696-3.5362172-.78289855-7.9057126-.87942029-4.36949547-.09652174-7.92705534.13942029-7.93776277.52550725z" fill="#fd9f00"/><path d="m17.8091661 2.60608696c-.9828694-.3110145-3.9955778-.58985508-7.5745044-.66492754-3.57892658-.07507246-6.60231829.06434783-7.59587105.33246377-.22435062-.07507247-.34186761-.13942029-.34186761-.21449276.01068336-.38608695 3.55755986-.62202898 7.93773866-.52550724s7.916372.49333333 7.9056886.87942029c.0106834.06434782-.117517.12869565-.3311842.19304348z" fill="#e38601"/></g><path d="m11.9760499 11.3466667s1.1644865-.2788406 1.3995205-.7828986.5341682-1.29768114 1.089703-1.19043477c.7157854.13942029.0961503 1.78028987-.2350339 2.18782607" fill="#ed9c80"/><path d="m27.6805934 11.7005797s-1.1538032-.3324638-1.3674704-.8472464c-.2136673-.5147826-.4807514-1.3191304-1.0362862-1.24405794-.7157854.10724638-.0534168 1.97333334.267084 2.39159424" fill="#ed9c80"/><path d="m19.6146544 80.2846377s5.3844149 19.6153623 8.6214739 24.8168113c3.237059 5.212174 17.4672984 27.851884 17.4672984 27.851884s2.5640072-1.415652 4.0169445-2.123478c-7.1044363-18.274783-9.1876921-23.411884-13.6212878-30.511594-2.5960572-10.3385509-.9187692-24.2484059-7.3394703-33.1176813-1.9550554-2.7026087-10.8542968 2.4130435-10.8542968 2.4130435z" fill="#164060"/><path d="m10.5765293 68.9165217s-.79056883 28.0663769-.79056883 33.3857973c0 5.31942 2.66015743 33.825507 2.66015743 33.825507s1.9230053.911594 5.1066474-.793623c.1068337-6.552754 1.2392701-16.269275.2991342-31.637681 3.3973094-14.6069568 5.4591985-29.0101452 5.4591985-29.0101452l-.3205009-7.6252174z" fill="#164060"/><path d="m13.3114702 30.0826087s-3.0554418 2.6811594-1.8589051 8.4724638c.4059678 1.6944927-1.85890516 4.2147826-3.38662606 5.5017391-1.52772091 1.2976812-2.83109119 4.2362319-1.38883719 6.8637681 1.442254 2.6168116 1.79480498 2.8098551 1.11106975 5.3623189-.67305187 2.5524637-.70510196 7.871884 6.4634346 6.7886956 7.1685365-1.0831884 7.0937689-18.7144928 7.0937689-18.7144928l-.9508352-7.6573913z" fill="#2c1e56"/><path d="m24.0803001 40.0886957s-.2991341.1715942-.8119356.4075362c0 .2573913.0106834.5147826.0106834.7507246.0213667 1.4907247 0 2.4559421 0 2.4559421-1.1538032 1.9089855-3.2691091 1.9411594-4.2519785 1.48-.1068336-.0536232-.1923005-.0965218-.267084-.1608696-.3739177-.2788406-.5555349-.7614493-.470068-1.2226087.1282003-.7507246.1602504-1.4478261.1388837-2.0805797-.9935527.0321739-2.0084722-.0965218-2.9699749-.504058-3.8032772-1.597971-1.6345545-12.0008696-1.6345545-12.0008696s6.4741179-2.7669565 8.4932735-.0857971c2.0191556 2.6704348 1.7627549 10.9605798 1.7627549 10.9605798z" fill="#ed9c80"/><path d="m17.5954988 30.2649275s-.2457174 1.9411595 1.442254 3.0672464c1.6879713 1.126087 4.5083792 1.597971 4.6686296 3.1744928.0961503.9330434-.6516851 1.8553623-.6516851 1.8553623s1.8054883-.1608696 1.8909552-.2895652c.0747836-.1286957.7371521-3.7536232.7371521-3.7536232s-3.9314776-3.7857971-4.4015456-3.9788406c-.4807513-.1823188-3.6857602-.0750725-3.6857602-.0750725z" fill="#d8836c"/><path d="m23.2683645 43.6921739c-1.1538032 1.9089855-3.269109 1.9411594-4.2519784 1.48l-.0320501-.0214493c2.3076064.6542029 2.2648729-2.2307246 1.9016386-2.7776811-.3632344-.5469565-1.4956708-.7507247-1.4956708-.7507247.972186-.0857971 2.296923-.3860869 2.296923-.3860869s1.2285868-.3431884 1.8695885-.3324638c.0320501 1.4907247-.2884508 2.7884058-.2884508 2.7884058z" fill="#d8836c"/><path d="m20.3197564 24.5486957c-1.7734383.3002898-3.7605438 1.5657971-4.6365796 3.1315942-.502118.9008695 2.4571735 1.7052173 2.4892236 3.0243478.0641002 2.5631884 2.9699749 3.582029 5.2668979 4.5257971.6089517.2466666 1.4102039 1.3513043.0106834 2.691884 0 0-2.0405223 1.8875363-1.794805 4.2147826.2029839 1.9518841 3.8032772 1.6194203 3.8032772 1.6194203s-5.1173308 15.5185508-4.476329 17.7063769c.3418676 1.1582608 10.2987619 7.2176811 17.1361141 1.4692753 2.8097245-2.3594203 3.1729588-6.7886956.7798855-9.5771014-1.8161717-2.1127537-1.8054883-3.5605797-1.6559212-4.0968116 1.8375384-6.66-1.5277209-11.217971-5.3203148-13.0626087-1.5384042-.7507247-2.5960572-2.2092754-2.6815241-3.9359421-.0961502-1.8231884-.5769016-4.053913-2.1366726-5.5231884-2.2541896-2.1127536-4.6793129-2.5524637-6.7839354-2.187826z" fill="#2c1e56"/><path d="m11.5166653 26.1037681c-1.4529374 1.1797102-1.3995206 3.4426087.1602504 4.4828986 1.5490876 1.0510145 4.0810447 1.6623188 7.8843219-.268116 4.5404292-2.3165217 3.1409087-5.9092753.117517-5.6304348-5.7369659 1.9626087-6.4313845.0214493-8.1620893 1.4156522z" fill="#2c1e56"/><path d="m18.2471839 43.9173913s.1602505 1.8446377 2.6708408 1.4371015c1.3033703-.3753624 1.5384042-1.2762319 1.7841216-1.9411595 1.0256028.0643479 3.5255098.0965218 5.6087655-2.809855 1.6131879-2.252174 3.9955778-6.1452174 5.1173309-8.1828986.4593846-.8365217.587585-1.8017391.3418676-2.7347826-1.1217531-4.2898551-5.2882646-14.8965217-5.2882646-14.8965217l4.1344614-1.5014493s4.209245 10.4565217 6.3459176 15.775942c.6944186 1.7266667.6196351 3.6678261-.2136672 5.3301449-2.2541896 4.5150725-6.591635 12.2153624-8.6214739 16.1834783-.6410018 2.3701449 2.6922074 19.1971015 2.6922074 19.1971015s-9.123592 5.6411594-22.2748118 1.4907246c-.0213667-5.0513044.5662183-14.3173913.4380179-19.5295652-.1388837-5.3408696-2.89519134-4.826087-9.97826098-19.4544928-.67305187-1.3942029-.85466904-2.9707246-.53416815-4.4936232.71578532-3.3889855 3.10885862-9.0730434 7.05101955-15.0681159 2.79904108 1.2547826 3.24774238 1.715942 3.24774238 1.715942s-3.70712698 9.3089855-4.98913054 13.1698551c-.26708407.8043478-.20298389 1.6623188.2029839 2.4130435 2.1046225 3.9466666 8.54669034 13.8669565 12.26450064 13.8991304z" fill="#ef5243"/></g></g><g transform="translate(0 280)"><path d="m64.8415445 156.086779c.0107632 1.056442-14.3338522 2.006174-32.0276983 2.123557-17.6938462.117382-32.03846158-.640269-32.04923687-1.686041-.01076318-1.056443 14.33385217-2.006174 32.02769837-2.123557 17.6938461-.117382 32.0384615.640269 32.0492368 1.686041z" fill="#b0affd" opacity=".4"/><g transform="translate(6.461538)"><path d="m62.4723077 1.7714094c-.0430769-.38416108-.5492308-.19208054-.6676923.12805369-.0215385.04268456-.0430769.13872483-.0646154.27744966.0430769-.64026845.0646154-1.15248322.0538462-1.28053691-.043077-.36281879-.5061539-.22409396-.6569231.06402685.0107692-.25610739.0107692-.44818793 0-.53355705-.0430769-.4695302-.5492308-.26677853-.6784616.11738255-.0323077.08536913-.0646153.33080537-.1076923.6509396.0107693-.17073826.0107693-.29879195 0-.35214766-.0430769-.38416107-.4953846-.27744966-.6138461.03201343-.0430769.10671141-.0646154.29879194-.1292308.74697986-.0538461.38416108-.1615385.80033557-.2153846 1.19516779-.0430769.35214765-.4630769 2.01684564-1.2923077 2.19825503-1.2815385.26677853-.4630769-1.93147651-1.3676923-2.42234899-.28-.16006712-.5815385 1.55798658-.6030769 2.51838926-.0215385.96040268-.0215385 1.45127517.0646154 2.01684564.0753846.56557047.3984615 1.37657718.3553846 1.71805369-.0753846.55489933-.7215385 1.69671136-.7215385 1.69671136l3.2307692.7256376s.7646154-1.76073822 1.1523077-2.16624158c.98-.97107382 1.5938462-2.08087248 1.9492308-3.42543624.2261538-.84302013.3015385-1.71805369.3661538-2.59308725-.0215384-.01067114-.0430769-1.18449664-.0538461-1.31255033z" fill="#feaf84"/><path d="m32.1246154 28.5026174s10.2307692-.0853691 15.7876923-6.2639597c4.4369231-6.1572483 8.7123077-12.96543622 9.0353846-13.59503354.8723077.33080537 2.7461539 1.18449665 2.7461539 1.18449665s-5.8584616 12.98677849-8.1415385 15.95335569-6.7738462 7.8219463-16.2507692 10.2336242c-4.5338462-5.1755034-3.1769231-7.5124833-3.1769231-7.5124833z" fill="#feaf84"/><g transform="translate(34.461538 147.261745)"><path d="m4.32923077 2.31563758s.59230769 1.33389262.56 2.21959732c-.03230769.89637584-2.88615385 1.07778523-3.24153846.62959731-.35538462-.44818791-.68923077-4.53523489-.68923077-4.53523489" fill="#ffe1bd"/><path d="m.92615385 5.98651007c.04307692.92838926.36615384 2.43302013.36615384 2.43302013l3.29538462-.13872483.14-.55489933s1.08769231.50154362 1.93846154.4695302l2.78923077-.11738255c2.03538458-.08536913 3.18769228-.38416107 3.21999998-.74697986.1507692-1.49395974-2.2830769-1.32322148-2.91846152-1.3018792-1.82.07469799-3.82307693-.69362416-4.29692308-1.59-.34461538-.6509396-.20461538-.82167785-.58153846-.68295302 0 0-.33384616.08536913-.54923077.50154362-.32307692.6509396-.95846154 1.09912752-1.68 1.00308725-.40923077-.0533557-.82923077-.19208053-1.14153846-.49087248.01076923.02134228-.62461539.28812081-.58153846 1.21651007z" fill="#3a3a3a"/></g><g transform="translate(0 145.127516)"><path d="m6.55846154 2.67845638s-.50615385 2.42234899-.87230769 3.2333557c-.36615385.82167785-3.09076923-.06402685-3.24153847-.60825503-.16153846-.54422819 1.05538462-4.46053692 1.05538462-4.46053692" fill="#ffe1bd"/><path d="m1.46461538 5.80510067c-.31230769.87503356-.75384615 2.57174497-.75384615 2.57174497l2.56307692 1.37657718.47384616-.38416108s.59230769.86436246 1.36769231 1.31255036c.58153846.3308053 1.86307692.7896644 2.52.9177181 2.30461538.4268456 4.05999998.1067114 4.23230768-.2134228.7-1.3338926-2.35846153-1.92080539-2.95076922-2.13422821-1.72307693-.59758389-2.56307693-2.18758389-2.66-3.20134228-.07538462-.72563758.11846154-.84302013-.28-.85369127 0 0-.34461539-.04268457-.7.26677852-.53846154.48020134-1.30307693.66161074-1.93846154.30946309-.36615385-.20275168-.7-.48020134-.87230769-.87503356-.01076923 0-.68923077.03201342-1.00153847.90704698z" fill="#3a3a3a"/></g><g transform="translate(2.153846 64.978941)"><g fill="#164060"><path d="m13.3538462 18.5760921s-4.92153851-10.45771811 2.5738461-18.50375838c0 0 6.7953846 2.68912752 12.1584615 2.82785235 4.2215385.10671141 6.343077-.40550335 6.343077-.40550335s1.2707692 7.70456378 1.2492307 19.86966438z"/><path d="m32.9969231 85.7829377c.14 0 .2692307 0 .3984615-.0106711 2.7892308-.0853691 4.3507692-.4802013 4.3507692-.4802013l-.0323076-.7896645c-.6569231-12.1757718 0-32.1414765.0323076-38.4481208 0-.4375167-.0215384-.8430201-.0861538-1.2058389-.6784615-4.5885906-5.4492308-3.788255-7.3015385.5228859-.4307692 1.0030873-.7646153 2.1128859-1.0015384 3.2973826-.3015385 1.4299328-.4738462 2.9879194-.5492308 4.6312751-.5061538 10.5644296 3.0369231 24.6610067 4.1892308 32.482953z"/><path d="m22.0446154 23.1433404c.0215384.1280537.0538461.2561074.0969231.3841611 1.2923077 5.5063087 5.3630769 20.3498658 7.2153846 25.1412081v.0106711c.2692307.6722819 1.12 1.2058389 2.1753846 1.440604 2.4446154.5548994 6.0092308-.4802013 6.1169231-5.2715436.0215384-.533557-.0215385-1.0991275-.0861539-1.7180537-.4846154-3.862953-2.2292307-25.2585906-2.4876923-27.3181208-.2476923-2.0595302-.7538461-5.0581208-1.8738461-5.3995973-5.5784616-1.66469799-12.9123077 5.0261074-11.1569231 12.7306711z"/></g><path d="m28.0969231 44.9871659s1.12 4.1724161.7 8.32349c-.42 4.1404027 1.8415384-3.7028859 1.8415384-3.7028859l-1.4861538-2.7424833z" fill="#594a5f"/><path d="m33.3953846 85.7722666s-1.2061538-12.4105369-2.6815384-20.9794631c-1.1415385-6.6161074.1615384-12.3785235.8184615-14.6621476.1938461-.6829531.3338461-1.0457718.3338461-1.0457718l-1.5076923-3.7028859c-1.7123077-4.8233558-2.2184615-16.2201343-2.2184615-16.2201343 3.3384615-8.1740939 3.4353846-18.3010067 3.4353846-18.3010067l-3.1230769.5548993-5.3415385 6.9148994-.9584615 5.1861745c1.0446154 4.4605369 3.92 15.0569798 5.9553846 21.4596644s1.12 4.1724161.7 8.3234899c-.0646154.5975839-.0646154.9390604-.0215385 1.0991275-.2261538 10.4150336 3.1123077 23.8179866 4.2215385 31.3731544.1184615.0106711.2584615.0106711.3876923 0z" fill="#0f3851"/><path d="m12.0184615 45.8195149c3.5753847-3.6175167 8.82-2.1875839 6.6338462 3.2973826-2.3476923 5.8584564-9.68153847 22.1746309-13.54769232 33.7528188l-.26923076.757651s-1.75538462-.224094-4.59846154-1.2698658c1.75538461-7.4804698 2.72461538-20.2858389 6.64461538-29.3456376 1.26-2.9345637 3.28461534-5.3142282 5.13692304-7.192349z" fill="#164060"/><path d="m31.5753846 10.8715284c.3661539-8.60093964-10.1769231-2.4650336-15.2276923.5762416-2.1215385 1.2805369-2.8215385 3.6922147-3.0261538 5.9438255-.2046154 2.2516107-2.0353847 25.4506711-2.423077 29.6871141-.8723077 9.5506711 7.28 4.012349 7.9692308 1.3445637 1.7230769-6.7228188 12.5030769-32.8671141 12.7076923-37.5517449z" fill="#164060"/><path d="m11.4046154 41.1562263s-.1507692 4.5565772-3.76923078 10.3189933c0 0 6.18153848-3.1373154 6.47230768-3.5748322s1.2061539-4.8873825 1.0661539-5.3462416c-.1507693-.4588591-3.7692308-1.3979195-3.7692308-1.3979195z" fill="#0f3851"/></g><g transform="translate(14 6.402685)"><path d="m18.2861538 15.2383893c.0215385.6509396.043077 3.18-1.3138461 3.7775839-1.3569231.608255-2.2292308.8750335-2.1861539 1.0777852.0107693.0960403.1507693.5442282.2907693.9710738.3123077.981745.7861538 1.2165101.7861538 1.2165101l.1938462 3.2440268-2.4338462 2.4116779-.7969231.7896644-1.1953846-1.0884564-3.89846151-3.5214765s1.60461539-1.9634899.49538462-4.0657047c-.16153846-.2987919-1.93846154-2.2516107-3.34923077-4.2151006-.82923077-1.1524833-1.52923077-2.3049665-1.71230769-3.1266443-.50615385-2.2516108-.93692308-4.62060407.36615384-6.02919467 1.29230769-1.40859061 10.23076921-7.21369128 12.01846151-.40550336 0 0 2.0461539 3.74557043 2.7138462 4.33248323.6784615.5975839.5061538 1.4085906-.0969231 1.739396-.5923077.3308053.0969231 2.2409396.1184615 2.8918792z" fill="#feaf84"/><path d="m16.0676923 25.5360403-2.4338461 2.4116778-.743077.3521477-1.2492307-.6616108-3.89846158-3.5214765s1.60461539-1.9634899.49538462-4.0657047c-.16153846-.2987919-1.93846154-2.2516107-3.34923077-4.2151006l-.16153846-1.3552349s2.76769231-.7576511 2.88615384-.7576511c.12923077 0 1.35692308 1.3765772 1.36769231 1.4619464.01076923.0853691-.20461538 1.6753691-.20461538 1.6753691s.36615384 2.0808725.8076923 3.6602013c.23692308.8216779 1.04461542 1.4406041 2.00307692 1.515302.5384615.0426846 1.1415385.0426846 1.6907692-.0533557.9369231-.1493959 1.5292308-.6295973 1.82-.9283892.3123077.9817449.7861539 1.21651.7861539 1.21651z" fill="#f29d77"/><path d="m7.72153846 13.2748993s-.21538461 4.6099329 3.08000004 6.509396c3.2846153 1.8994631 7.8076923-.2027517 8.3676923-.8430201.56-.6402685 2.0246154-4.7059732-.4523077-6.0505369-2.4661539-1.3445638-4.8246154.9710738-4.8246154.9710738s-1.3676923 1.5259731-1.9276923 1.5473154c-.5384616.0106712-2.10000002-1.365906-2.31538463-4.2471141-.01076923-.1600671.09692308-.2987919.26923077-.3521476.62461536-.1814094 2.01384616-.90704701 1.30307696-3.69221479-.0538462-.2347651.1076923-.45885906.376923-.50154363.9153847-.11738255 2.7892308-.36281879 3.2092308-.33080537 0 0 .3015385 0 .6138462.05335571.096923.02134228.1830769.07469798.236923.14939597.1507693.25610738.4738462.84302014.56.98174497.1076923.18140939.883077 1.48328859.883077 1.48328859s.4307692-.35214765.3230769-.84302014c-.1076923-.50154362-.5707692-1.55798657-.5169231-1.8247651.0538462-.26677852.8184615-.57624161.8184615-1.1738255.0107693-1.3552349-.516923-6.53073825-4.6630769-3.35073825-.5384615.41617449-1.0230769.91771812-1.5076923 1.08845637-.6246154.22409396-1.3353846-.21342282-2.70307691-.11738255-1.90615384.12805369-10.10153846 2.02751678-7.48461538 9.25187922 2.62769231 7.2243624 6.94615384 8.2487919 6.94615384 8.2487919s-1.41076923-6.0398658-.59230769-6.9575839z" fill="#2c1e56"/><path d="m7.72153846 13.2748993s-.40923077-1.2378523-1.45384615-.8857047c-1.41076923.4802014-1.28153846 3.9803356 1.78769231 3.5214765 0 0-.40923077-1.4299328-.33384616-2.6357718z" fill="#f29d77"/></g><g fill="#1fc9bd"><path d="m39.1892308 69.5011409s-11.0923077 2.6997987-25.0276923.1387249c.6784615-4.2684564 1.0015384-11.0232886 1.1846153-15.8893289l.0215385-.4908725c.1076923-3.105302.1723077-5.3248993.2369231-5.4102684.14-.1920806-.3553846-10.1055705.4630769-13.9898658.1507692-.7149664.3446154-1.2271812.6030769-1.4299329 1.6261539-1.3445637 3.543077-2.7531543 5.6861539-3.7989262 0 0 4.9861538 5.3142282 7.5276923-.5655704 2.8-.2454363 4.2215384.3094631 5.0292308 3.0839597 4.4907692 15.4091275 4.2753846 38.3520805 4.2753846 38.3520805z"/><path d="m31.9846154 28.086443s4.6307692.0746979 9.3692308-1.9955034c2.6384615 3.0732886 4.2323076 8.6756376 4.2323076 8.6756376s-6.3753846 4.0230201-11.0384615 4.4071812c-1.0123077-6.7441611-2.5630769-11.0873154-2.5630769-11.0873154z"/><path d="m32.8784615 29.0468456s2.8753847 3.6068457 3.823077 9.7320806c3.22-.6189262 8.2492307-3.3720806 8.8846153-4.012349-1.4107692.458859-7.4630769 2.6784564-8.2815384.832349-1.5507692-3.4361074-4.4261539-6.5520806-4.4261539-6.5520806z" opacity=".5"/></g><g fill="#ffb127" transform="translate(30.035827 32.013423)"><path d="m1.65801897.49087248 20.35384613 2.09154363-3.7153846 8.12073829-17.58615384-8.08872487c-.51692308-.2347651-.73230769-.73630872-.50615385-1.16315436l.22615385-.4161745c.19384615-.38416107.7-.59758389 1.22769231-.54422819z"/><path d="m1.65801897.49087248 20.35384613 2.09154363-3.7153846 8.12073829-17.58615384-8.08872487c-.51692308-.2347651-.73230769-.73630872-.50615385-1.16315436l.22615385-.4161745c.19384615-.38416107.7-.59758389 1.22769231-.54422819z" opacity=".5"/><path d="m21.6995574 7.12832215c-1.0876923 2.21959731-2.6707692 3.79892615-3.5430769 3.53214765s-.7-2.28362416.3876923-4.51389262c1.0876923-2.21959731 2.6707692-3.79892617 3.5430769-3.53214765s.7 2.2942953-.3876923 4.51389262z"/><path d="m21.6995574 7.12832215c-1.0876923 2.21959731-2.6707692 3.79892615-3.5430769 3.53214765s-.7-2.28362416.3876923-4.51389262c1.0876923-2.21959731 2.6707692-3.79892617 3.5430769-3.53214765s.7 2.2942953-.3876923 4.51389262z" opacity=".5"/><path d="m21.6995574 7.12832215c-1.0876923 2.21959731-2.6707692 3.79892615-3.5430769 3.53214765s-.7-2.28362416.3876923-4.51389262c1.0876923-2.21959731 2.6707692-3.79892617 3.5430769-3.53214765s.7 2.2942953-.3876923 4.51389262z" opacity=".5"/></g><g fill="#feaf84" transform="translate(12.923077 30.946309)"><path d="m.68923077 16.8604027s2.14307692 7.3310738 7.72153846 10.7885235c1.62615387 1.0030872 3.66153847.4481879 4.94307697-.9710739 3.8230769-4.2364429 7.6353846-13.7657718 8.8630769-17.3726174-2.24-1.1738255-2.9507693-.99241611-2.9507693-.99241611s-5.416923 7.44845641-8.5292307 12.44255031l-2.32615387-4.012349"/><path d="m19.1046154 8.59026846s.9907692-1.59 1.0446154-2.80651007c.0430769-1.20583893-.5276923-3.29738255.656923-4.38583893.4415385-.40550335 1.9815385-1.02442953 3.7153847-.73630872 2.5846153.42684564 3.2846153 1.1738255 3.1446153 1.71805369s-1.9276923.72563758-2.4015384 1.6433557c-.4738462.91771813-.2046154 1.49395974-.3230769 2.50771813-.1723077 1.51530201-2.3046154 2.15557046-2.7676923 2.91322147-.3338462.53355705-3.0692308-.85369127-3.0692308-.85369127z"/></g><path d="m16.3907692 66.2037584c.6461539-2.2089262.9476923-9.9775168 1.023077-11.8983222 1.7446153-.1814094 5.1046153-1.440604 7.0753846-4.5672483-.7323077-1.2378523-2.5415385-5.527651-5.9123077-9.16651l-1.9384616-7.2136913s-.2261538.1707382-.5707692.4908725c-.8184615 3.8842953-.3230769 13.7977852-.4630769 13.9898657-.0646154.0960403-.1292308 2.3049665-.2369231 5.4102685l-.0215385.4908725c-.1830769 4.8660402-.5061538 11.6208725-1.1846153 15.8893288 13.9353846 2.5610739 25.0276923-.1387248 25.0276923-.1387248-13.903077 1.1951678-23.52-.7683221-22.7984616-3.2867114z" fill="#1fc9bd" opacity=".5"/><path d="m17.9523077 31.4051678s-5.7507692 3.7348993-5.9984615 10.0842282c-.1938462 4.9087248 3.0907692 12.0797315 3.0907692 12.0797315s5.6861538.6189262 8.6692308-3.9803356c-.883077-2.2409396-1.6584616-4.2257718-3.36-6.8722147" fill="#1fc9bd"/></g></g><g transform="translate(56 286)"><path d="m68.73 123.971186c0 1.057119-14.2306757 1.857967-31.7708108 1.804577s-31.76013515-.961017-31.74946548-2.007458c0-1.057119 14.23068168-1.857966 31.76014118-1.804576 17.5401351.064068 31.7601351.961017 31.7601351 2.007457z" fill="#b0affd" opacity=".4"/><path d="m33.1693243 8.90542373s.6725676-5.29627119 2.8717568-7.22898305c2.8717567-2.52 9.0422973-1.84728814 11.4443243.55525424 2.6689189 2.65881355 3.9393243 8.09389828 1.7721622 12.01271188 4.3236486 2.5306779 4.0887838 8.1259322.459054 8.6491525l1.2704054 6.7271187c.79 4.1857627-2.1351351 8.2006779-6.6295946 9.1083051l-8.0601351 1.6230508s-13.7822973-1.3027119-14.8391892-8.1045763 5.2204054-9.9732203 5.2204054-9.9732203-3.0105405-5.7233898.1494595-9.7489831c3.1813513-4.03627115 6.3413513-3.61983047 6.3413513-3.61983047z" fill="#2c1e56"/><g fill="#ed9c80"><path d="m52.8552703 28.9479661s12.4264865 1.9647458 15.7893243 1.8152542c2.6368919.1494916 6.9818919-14.3084745 7.3662162-15.1840678 2.1031081-1.3240678 2.6262162-3.139322 2.6048649-4.1323728-.0320271-.9930509-2.7222973-1.83661021-2.9785135-1.3347458.4483783-1.3240678.5444594-1.74050848.6618919-2.18898305.2455405-.93966102-.4697298-1.65508475-1.4945946 1.89-1.0141892 3.50237285-.9181081 2.92576275-1.1636487 4.15372885-1.6654054 3.1927118-5.9463513 10.6459322-6.2452703 11.7777966-5.562027-.1281356-14.9886486-2.2957627-14.9886486-2.2957627z"/><path d="m33.8525676 29.0440678s-9.6935135 7.9337288-12.5012162 9.6528814c-2.0283784 1.569661-14.71108113-7.9764407-15.58648654-8.4889831-2.55148648.0854237-3.60837837-.8115254-4.22756756-1.6337288s1.00351351-2.9684746 1.53729729-2.7122034c-1.20635135-.8222034-1.55864864-1.0998305-1.94297297-1.3988136-.81135135-.619322-.69391892-1.5910169 2.42337838.7047458 3.07459459 2.2637288 2.62621622 1.8472881 3.60837838 2.7015254 3.39486482 1.6550848 11.63648652 5.3069492 12.59729732 6.0544068 4.3877027-3.15 10.5795946-10.0586441 10.5795946-10.0586441z"/><path d="m48.6490541 115.332712s.5551351 2.317119.5124324 4.164407c-.2562162 1.281356 0 1.655084 0 1.655084l5.2631081-.41644s-2.3272973-1.057119-2.1671622-6.065085c.1601352-5.007966-3.6083783.662034-3.6083783.662034z"/></g><path d="m49.0974324 119.881525s2.2845946.779492 4.5478379.192204c2.6582432 1.131864 4.5264865 1.580339 6.9498648 1.857966 2.4127027.277627 1.9856757 2.114237-2.1458108 1.868644-4.1314865-.256271-7.0139189-.074746-7.932027.010678s-2.3913514.192203-2.4447297-.395085c-.0640541-.597966.2775675-3.72661 1.0248648-3.534407z" fill="#2c1e56"/><path d="m50.6881081 50.8698305s3.3841892 30.4535593 3.587027 34.4257627c.2028379 3.9615254.2028379 5.3389831 0 7.7628814-.2028378 2.4132203 1.5266217 22.7440674 1.5266217 22.7440674s-7.8786487 1.761865-9.8856757.192204c0 0 .3309459-22.1674579-.6725676-25.9688138-1.0035135-3.790678-4.9321621-23.0110169-4.9321621-23.0110169l4.5264864-19.6474577z" fill="#164060"/><path d="m33.8312162 80.0740678s-.6085135 6.4601695-1.9002703 7.6667797c-.8006756 1.9433898-.8006756 1.9433898.4590541 2.7122033 1.9216216 1.1745763 5.7968919 3.4489831 6.7577027 2.4879661 3.6083784-3.5877966 3.7471622-4.8477966 4.6012162-9.4820338.2882433-1.0571187 5.3164865-31.7562712 5.3164865-31.7562712s-16.0135135-2.231695-16.0668919 2.1569491c-.0747297 4.3779661 1.6333784 21.110339.8327027 26.2144068z" fill="#164060"/><g transform="translate(6.405405 106.779661)"><path d="m7.70783784.67271186s-1.66540541 1.80457628-3.27743243 2.89372882c-1.25972973.58728813-1.43054055 1.00372881-1.43054055 1.00372881l3.54432433 3.60915254s-.50175676-2.34915254 3.90729731-5.26423728c4.4197297-2.91508475-2.74364866-2.24237289-2.74364866-2.24237289z" fill="#ed9c80"/><path d="m4.05675676 3.75864407s.71527027 2.15694915 2.59418919 3.44898305c.64054054 2.63745763 1.38783783 4.28186438 2.61554054 6.22525428 1.22770271 1.9433898-.61918919 2.7442372-2.90378379-.4377967-2.28459459-3.18203385-4.18486486-5.18949148-4.81472973-5.80881351-.62986486-.61932204-1.6227027-1.63372882-1.14229729-2.03949153.45905405-.40576271 3.36283783-2.05016949 3.65108108-1.38813559z" fill="#2c1e56"/></g><path d="m32.5287838 86.7371186c-6.9818919 8.7132204-18.7998649 15.2801694-22.1413514 20.4162714-.59783781 1.612373 7.1420271 5.744746 7.1420271 5.744746s16.1095946-14.5861021 19.4083783-17.8001699c1.2810811-1.249322 2.5728379-2.2423729 3.555-3.5664407-3.1386486-1.0250847-6.0104054-7.239661-7.964054-4.7944068z" fill="#164060"/><path d="m47.4960811 33.080339c-.4697297 1.0998305 3.127973 16.3906779 3.7258108 19.9144068 0 0-.0747297-.010678-.2241892-.0427119-1.5586486-.2349153-11.1240541-1.4949153-18.8425676 1.7298305l-.7045946-21.6015254-.032027-.8008475s0-.8115254.0747297-2.0608474v-.010678c.1814865-2.5733898.7045946-6.9086441 2.3593244-9.6955932.854054-1.4415254 1.9856756-2.4772882 3.5336486-2.6267797 4.8040541-.4805085 4.772027 1.4949153 9.2344595 2.5947458l7.2381081 1.7938983s-.8113514 5.6166102 0 7.2823729h-5.0282433s-.8647297 2.4132203-1.3344594 3.5237288z" fill="#ef5243"/><path d="m46.2256757 4.21779661s3.0532432 7.06881359.7366216 10.29355929c-1.7294595 2.4238983-4.7613514 2.4879661-4.7613514 2.4879661v3.481017s-.3522973.309661-.9501351.3416949c-1.0568919.0533898-3.8645946-1.6337288-3.8645946-1.6337288v-13.71050849z" fill="#ed9c80"/><path d="m34.9841892 29.4498305c-1.6547297 1.6444068-2.7863514 2.829661-3.5336487 3.6305085l-.0320475-.8008475s-.0320065-7.6133898 2.4340746-11.7671186c.395-.1067797.7793243-.1494915 1.1316216-.1174576 3.8432432.2776271 3.619054 5.4564406 0 9.0549152z" fill="#bc151e"/><path d="m53.8587838 29.5566102s-3.3841892-.1388136-3.7898649-.7794916c-.395-.6406779-1.7294594-3.5237288-3.8005405-4.4954237 0 0 2.9144594 2.829661 2.5621621 5.2749153z" fill="#bc151e"/><path d="m50.9977027 52.9520339c-1.5586486-.2349153-11.1240541-1.4949153-18.8425676 1.7298305l-.7045946-21.6015254-.032027-.8008475s0-.8115254.0747297-2.0608474l1.8468919.5552542s.0640541 18.9213559.9821622 20.1066102c.9181081 1.1852542 9.2131081.2883051 11.3482432.63 1.6440541.2455932 4.2062163 1.0784746 5.3271622 1.4415254z" fill="#bc151e"/><path d="m24.9490541 27.3355932s6.2025675-8.0618644 10.0351351-7.7842373c3.8432432.2883051 3.619054 5.4564407 0 9.0762712-3.6190541 3.6198305-4.8147297 4.9972882-4.8147297 4.9972882s-4.4197298-2.0288136-5.2204054-6.2893221z" fill="#ef5243"/><path d="m46.5032432 3.40627119s-1.4305405 6.33203389-4.7506756 7.99779661c-3.3094595 1.6657627-.8113514 5.7661017-3.9713514 8.830678-.9287838.9076271-2.3272973.7581356-3.3948648.4377966-1.5266217-.4591526-3.2881082-.1281356-4.3556757.9823729-.1067568.1067796-.1921622.2242372-.2775676.3416949-4.0994595-2.7122034 6.2772973-17.76813562 6.2772973-17.76813562z" fill="#2c1e56"/></g><g fill="#d7eef9" stroke="#e6e6e6"><ellipse cx="304.910448" cy="69.307692" rx="17.485075" ry="17.769231"/><ellipse cx="283.186567" cy="80.615385" rx="11.656716" ry="11.846154"/><ellipse cx="329.813433" cy="80.615385" rx="11.656716" ry="11.846154"/><path d="m283.186567 77.384615h46.626866v15.076923h-46.626866z"/></g></g></g></svg>